{"glyphs":{"0":{"ha":926,"x_min":0,"x_max":771,"o":"m 0 154 l 154 154 l 154 309 l 154 463 l 154 617 l 154 771 l 154 926 l 0 926 l 0 771 l 0 617 l 0 463 l 0 309 l 0 154 m 154 0 l 309 0 l 463 0 l 617 0 l 617 154 l 463 154 l 309 154 l 154 154 l 154 0 m 154 926 l 309 926 l 463 926 l 617 926 l 617 1080 l 463 1080 l 309 1080 l 154 1080 l 154 926 m 617 154 l 771 154 l 771 309 l 771 463 l 771 617 l 771 771 l 771 926 l 617 926 l 617 771 l 617 617 l 617 463 l 617 309 l 617 154 z "},"1":{"ha":617,"x_min":0,"x_max":463,"o":"m 0 0 l 154 0 l 309 0 l 463 0 l 463 154 l 309 154 l 309 309 l 309 463 l 309 617 l 309 771 l 309 926 l 309 1080 l 154 1080 l 154 926 l 0 926 l 0 771 l 154 771 l 154 617 l 154 463 l 154 309 l 154 154 l 0 154 l 0 0 z "},"2":{"ha":926,"x_min":0,"x_max":771,"o":"m 0 0 l 154 0 l 309 0 l 463 0 l 617 0 l 771 0 l 771 154 l 771 309 l 617 309 l 617 154 l 463 154 l 309 154 l 154 154 l 154 309 l 0 309 l 0 154 l 0 0 m 0 771 l 154 771 l 154 926 l 0 926 l 0 771 m 154 309 l 309 309 l 309 463 l 154 463 l 154 309 m 154 926 l 309 926 l 463 926 l 617 926 l 617 1080 l 463 1080 l 309 1080 l 154 1080 l 154 926 m 309 463 l 463 463 l 617 463 l 617 617 l 463 617 l 309 617 l 309 463 m 617 617 l 771 617 l 771 771 l 771 926 l 617 926 l 617 771 l 617 617 z "},"3":{"ha":926,"x_min":0,"x_max":771,"o":"m 0 154 l 154 154 l 154 309 l 154 463 l 0 463 l 0 309 l 0 154 m 154 0 l 309 0 l 463 0 l 617 0 l 617 154 l 463 154 l 309 154 l 154 154 l 154 0 m 154 771 l 309 771 l 309 926 l 154 926 l 154 771 m 309 463 l 463 463 l 617 463 l 617 617 l 463 617 l 309 617 l 309 463 m 309 926 l 463 926 l 617 926 l 617 1080 l 463 1080 l 309 1080 l 309 926 m 617 154 l 771 154 l 771 309 l 771 463 l 617 463 l 617 309 l 617 154 m 617 617 l 771 617 l 771 771 l 771 926 l 617 926 l 617 771 l 617 617 z "},"4":{"ha":926,"x_min":0,"x_max":771,"o":"m 0 309 l 154 309 l 309 309 l 463 309 l 463 154 l 309 154 l 309 0 l 463 0 l 617 0 l 771 0 l 771 154 l 617 154 l 617 309 l 771 309 l 771 463 l 617 463 l 617 617 l 617 771 l 617 926 l 617 1080 l 463 1080 l 463 926 l 309 926 l 309 771 l 463 771 l 463 617 l 463 463 l 309 463 l 154 463 l 154 617 l 0 617 l 0 463 l 0 309 m 154 617 l 309 617 l 309 771 l 154 771 l 154 617 z "},"5":{"ha":926,"x_min":0,"x_max":771,"o":"m 0 154 l 154 154 l 154 309 l 0 309 l 0 154 m 0 617 l 154 617 l 154 771 l 154 926 l 309 926 l 463 926 l 617 926 l 617 771 l 771 771 l 771 926 l 771 1080 l 617 1080 l 463 1080 l 309 1080 l 154 1080 l 0 1080 l 0 926 l 0 771 l 0 617 m 154 0 l 309 0 l 463 0 l 617 0 l 617 154 l 463 154 l 309 154 l 154 154 l 154 0 m 154 463 l 309 463 l 463 463 l 617 463 l 617 617 l 463 617 l 309 617 l 154 617 l 154 463 m 617 154 l 771 154 l 771 309 l 771 463 l 617 463 l 617 309 l 617 154 z "},"6":{"ha":926,"x_min":0,"x_max":771,"o":"m 0 154 l 154 154 l 154 309 l 154 463 l 309 463 l 463 463 l 617 463 l 617 617 l 463 617 l 309 617 l 154 617 l 154 771 l 0 771 l 0 617 l 0 463 l 0 309 l 0 154 m 154 0 l 309 0 l 463 0 l 617 0 l 617 154 l 463 154 l 309 154 l 154 154 l 154 0 m 154 771 l 309 771 l 309 926 l 154 926 l 154 771 m 309 926 l 463 926 l 617 926 l 617 1080 l 463 1080 l 309 1080 l 309 926 m 617 154 l 771 154 l 771 309 l 771 463 l 617 463 l 617 309 l 617 154 m 617 771 l 771 771 l 771 926 l 617 926 l 617 771 z "},"7":{"ha":926,"x_min":0,"x_max":771,"o":"m 0 771 l 154 771 l 154 926 l 309 926 l 463 926 l 617 926 l 617 771 l 617 617 l 771 617 l 771 771 l 771 926 l 771 1080 l 617 1080 l 463 1080 l 309 1080 l 154 1080 l 0 1080 l 0 926 l 0 771 m 154 0 l 309 0 l 309 154 l 309 309 l 154 309 l 154 154 l 154 0 m 309 309 l 463 309 l 463 463 l 309 463 l 309 309 m 463 463 l 617 463 l 617 617 l 463 617 l 463 463 z "},"8":{"ha":926,"x_min":0,"x_max":771,"o":"m 0 154 l 154 154 l 154 309 l 154 463 l 0 463 l 0 309 l 0 154 m 0 617 l 154 617 l 154 771 l 154 926 l 0 926 l 0 771 l 0 617 m 154 0 l 309 0 l 463 0 l 617 0 l 617 154 l 463 154 l 309 154 l 154 154 l 154 0 m 154 463 l 309 463 l 463 463 l 617 463 l 617 617 l 463 617 l 309 617 l 154 617 l 154 463 m 154 926 l 309 926 l 463 926 l 617 926 l 617 1080 l 463 1080 l 309 1080 l 154 1080 l 154 926 m 617 154 l 771 154 l 771 309 l 771 463 l 617 463 l 617 309 l 617 154 m 617 617 l 771 617 l 771 771 l 771 926 l 617 926 l 617 771 l 617 617 z "},"9":{"ha":926,"x_min":0,"x_max":771,"o":"m 0 154 l 154 154 l 154 309 l 0 309 l 0 154 m 0 617 l 154 617 l 154 771 l 154 926 l 0 926 l 0 771 l 0 617 m 154 0 l 309 0 l 463 0 l 617 0 l 617 154 l 463 154 l 309 154 l 154 154 l 154 0 m 154 463 l 309 463 l 463 463 l 617 463 l 617 309 l 617 154 l 771 154 l 771 309 l 771 463 l 771 617 l 771 771 l 771 926 l 617 926 l 617 771 l 617 617 l 463 617 l 309 617 l 154 617 l 154 463 m 154 926 l 309 926 l 463 926 l 617 926 l 617 1080 l 463 1080 l 309 1080 l 154 1080 l 154 926 z "}," ":{"ha":617,"x_min":0,"x_max":0,"o":""},"!":{"ha":309,"x_min":0,"x_max":154,"o":"m 0 0 l 154 0 l 154 154 l 0 154 l 0 0 m 0 309 l 154 309 l 154 463 l 154 617 l 154 771 l 154 926 l 154 1080 l 0 1080 l 0 926 l 0 771 l 0 617 l 0 463 l 0 309 z "},"\"":{"ha":617,"x_min":0,"x_max":463,"o":"m 0 771 l 154 771 l 154 926 l 154 1080 l 0 1080 l 0 926 l 0 771 m 309 771 l 463 771 l 463 926 l 463 1080 l 309 1080 l 309 926 l 309 771 z "},"#":{"ha":926,"x_min":0,"x_max":771,"o":"m 0 309 l 154 309 l 154 154 l 154 0 l 309 0 l 309 154 l 309 309 l 463 309 l 463 154 l 463 0 l 617 0 l 617 154 l 617 309 l 771 309 l 771 463 l 617 463 l 617 617 l 771 617 l 771 771 l 617 771 l 617 926 l 617 1080 l 463 1080 l 463 926 l 463 771 l 309 771 l 309 926 l 309 1080 l 154 1080 l 154 926 l 154 771 l 0 771 l 0 617 l 154 617 l 154 463 l 0 463 l 0 309 m 309 463 l 309 617 l 463 617 l 463 463 l 309 463 z "},"$":{"ha":926,"x_min":0,"x_max":771,"o":"m 0 154 l 154 154 l 154 309 l 0 309 l 0 154 m 0 617 l 154 617 l 154 771 l 0 771 l 0 617 m 154 0 l 309 0 l 309 -155 l 463 -155 l 463 0 l 617 0 l 617 154 l 463 154 l 463 309 l 463 463 l 617 463 l 617 617 l 463 617 l 463 771 l 617 771 l 771 771 l 771 926 l 617 926 l 463 926 l 463 1080 l 309 1080 l 309 926 l 154 926 l 154 771 l 309 771 l 309 617 l 154 617 l 154 463 l 309 463 l 309 309 l 309 154 l 154 154 l 154 0 m 617 154 l 771 154 l 771 309 l 771 463 l 617 463 l 617 309 l 617 154 z "},"%":{"ha":1234,"x_min":0,"x_max":1080,"o":"m 0 0 l 154 0 l 154 154 l 0 154 l 0 0 m 154 154 l 309 154 l 309 309 l 154 309 l 154 154 m 154 771 l 309 771 l 463 771 l 463 926 l 463 1080 l 309 1080 l 154 1080 l 154 926 l 154 771 m 309 309 l 463 309 l 463 463 l 309 463 l 309 309 m 463 463 l 617 463 l 617 617 l 463 617 l 463 463 m 617 0 l 771 0 l 926 0 l 926 154 l 926 309 l 771 309 l 617 309 l 617 154 l 617 0 m 617 617 l 771 617 l 771 771 l 617 771 l 617 617 m 771 771 l 926 771 l 926 926 l 771 926 l 771 771 m 926 926 l 1080 926 l 1080 1080 l 926 1080 l 926 926 z "},"&":{"ha":1080,"x_min":0,"x_max":926,"o":"m 0 154 l 154 154 l 154 309 l 0 309 l 0 154 m 0 771 l 154 771 l 154 926 l 0 926 l 0 771 m 154 0 l 309 0 l 463 0 l 617 0 l 617 154 l 463 154 l 309 154 l 154 154 l 154 0 m 154 309 l 309 309 l 309 463 l 154 463 l 154 309 m 154 617 l 309 617 l 309 771 l 154 771 l 154 617 m 154 926 l 309 926 l 463 926 l 463 1080 l 309 1080 l 154 1080 l 154 926 m 309 463 l 463 463 l 463 617 l 309 617 l 309 463 m 463 309 l 617 309 l 617 463 l 463 463 l 463 309 m 463 617 l 617 617 l 617 771 l 617 926 l 463 926 l 463 771 l 463 617 m 617 154 l 771 154 l 771 309 l 617 309 l 617 154 m 771 0 l 926 0 l 926 154 l 771 154 l 771 0 m 771 309 l 926 309 l 926 463 l 926 617 l 771 617 l 771 463 l 771 309 z "},"'":{"ha":309,"x_min":0,"x_max":154,"o":"m 0 771 l 154 771 l 154 926 l 154 1080 l 0 1080 l 0 926 l 0 771 z "},"(":{"ha":771,"x_min":0,"x_max":617,"o":"m 0 154 l 154 154 l 154 309 l 154 463 l 154 617 l 154 771 l 0 771 l 0 617 l 0 463 l 0 309 l 0 154 m 154 0 l 309 0 l 309 154 l 154 154 l 154 0 m 154 771 l 309 771 l 309 926 l 154 926 l 154 771 m 309 -155 l 463 -155 l 463 0 l 309 0 l 309 -155 m 309 926 l 463 926 l 617 926 l 617 1080 l 463 1080 l 309 1080 l 309 926 z "},")":{"ha":771,"x_min":0,"x_max":617,"o":"m 0 926 l 154 926 l 309 926 l 309 1080 l 154 1080 l 0 1080 l 0 926 m 154 -155 l 309 -155 l 309 0 l 154 0 l 154 -155 m 309 0 l 463 0 l 463 154 l 309 154 l 309 0 m 309 771 l 463 771 l 463 926 l 309 926 l 309 771 m 463 154 l 617 154 l 617 309 l 617 463 l 617 617 l 617 771 l 463 771 l 463 617 l 463 463 l 463 309 l 463 154 z "},"*":{"ha":617,"x_min":0,"x_max":463,"o":"m 0 463 l 154 463 l 154 617 l 0 617 l 0 463 m 0 771 l 154 771 l 154 617 l 309 617 l 309 771 l 463 771 l 463 926 l 309 926 l 309 1080 l 154 1080 l 154 926 l 0 926 l 0 771 m 309 463 l 463 463 l 463 617 l 309 617 l 309 463 z "},"+":{"ha":617,"x_min":0,"x_max":463,"o":"m 0 463 l 154 463 l 154 309 l 309 309 l 309 463 l 463 463 l 463 617 l 309 617 l 309 771 l 154 771 l 154 617 l 0 617 l 0 463 z "},",":{"ha":463,"x_min":0,"x_max":309,"o":"m 0 -155 l 154 -155 l 154 0 l 0 0 l 0 -155 m 154 0 l 309 0 l 309 154 l 154 154 l 154 0 z "},"-":{"ha":617,"x_min":0,"x_max":463,"o":"m 0 463 l 154 463 l 309 463 l 463 463 l 463 617 l 309 617 l 154 617 l 0 617 l 0 463 z "},".":{"ha":309,"x_min":0,"x_max":154,"o":"m 0 0 l 154 0 l 154 154 l 0 154 l 0 0 z "},"/":{"ha":1234,"x_min":0,"x_max":1080,"o":"m 0 0 l 154 0 l 154 154 l 0 154 l 0 0 m 154 154 l 309 154 l 309 309 l 154 309 l 154 154 m 309 309 l 463 309 l 463 463 l 309 463 l 309 309 m 463 463 l 617 463 l 617 617 l 463 617 l 463 463 m 617 617 l 771 617 l 771 771 l 617 771 l 617 617 m 771 771 l 926 771 l 926 926 l 771 926 l 771 771 m 926 926 l 1080 926 l 1080 1080 l 926 1080 l 926 926 z "},":":{"ha":309,"x_min":0,"x_max":154,"o":"m 0 0 l 154 0 l 154 154 l 0 154 l 0 0 m 0 617 l 154 617 l 154 771 l 0 771 l 0 617 z "},";":{"ha":463,"x_min":0,"x_max":309,"o":"m 0 -155 l 154 -155 l 154 0 l 0 0 l 0 -155 m 154 0 l 309 0 l 309 154 l 154 154 l 154 0 m 154 617 l 309 617 l 309 771 l 154 771 l 154 617 z "},"<":{"ha":617,"x_min":0,"x_max":463,"o":"m 0 463 l 154 463 l 154 617 l 0 617 l 0 463 m 154 309 l 309 309 l 309 463 l 154 463 l 154 309 m 154 617 l 309 617 l 309 771 l 154 771 l 154 617 m 309 154 l 463 154 l 463 309 l 309 309 l 309 154 m 309 771 l 463 771 l 463 926 l 309 926 l 309 771 z "},"=":{"ha":617,"x_min":0,"x_max":463,"o":"m 0 309 l 154 309 l 309 309 l 463 309 l 463 463 l 309 463 l 154 463 l 0 463 l 0 309 m 0 617 l 154 617 l 309 617 l 463 617 l 463 771 l 309 771 l 154 771 l 0 771 l 0 617 z "},">":{"ha":617,"x_min":0,"x_max":463,"o":"m 0 154 l 154 154 l 154 309 l 0 309 l 0 154 m 0 771 l 154 771 l 154 926 l 0 926 l 0 771 m 154 309 l 309 309 l 309 463 l 154 463 l 154 309 m 154 617 l 309 617 l 309 771 l 154 771 l 154 617 m 309 463 l 463 463 l 463 617 l 309 617 l 309 463 z "},"?":{"ha":926,"x_min":0,"x_max":771,"o":"m 0 771 l 154 771 l 154 926 l 0 926 l 0 771 m 154 926 l 309 926 l 463 926 l 617 926 l 617 1080 l 463 1080 l 309 1080 l 154 1080 l 154 926 m 309 0 l 463 0 l 463 154 l 309 154 l 309 0 m 309 309 l 463 309 l 463 463 l 309 463 l 309 309 m 463 463 l 617 463 l 617 617 l 463 617 l 463 463 m 617 617 l 771 617 l 771 771 l 771 926 l 617 926 l 617 771 l 617 617 z "},"@":{"ha":1080,"x_min":0,"x_max":926,"o":"m 0 154 l 154 154 l 154 309 l 154 463 l 0 463 l 0 309 l 0 154 m 0 771 l 154 771 l 154 926 l 0 926 l 0 771 m 154 0 l 309 0 l 463 0 l 463 154 l 309 154 l 154 154 l 154 0 m 154 463 l 309 463 l 463 463 l 463 617 l 309 617 l 154 617 l 154 463 m 154 926 l 309 926 l 463 926 l 617 926 l 771 926 l 771 1080 l 617 1080 l 463 1080 l 309 1080 l 154 1080 l 154 926 m 463 154 l 617 154 l 617 309 l 617 463 l 463 463 l 463 309 l 463 154 m 617 0 l 771 0 l 771 154 l 617 154 l 617 0 m 771 154 l 926 154 l 926 309 l 926 463 l 926 617 l 926 771 l 926 926 l 771 926 l 771 771 l 771 617 l 771 463 l 771 309 l 771 154 z "},"A":{"ha":1234,"x_min":0,"x_max":1080,"o":"m 0 0 l 154 0 l 309 0 l 463 0 l 463 154 l 309 154 l 309 309 l 463 309 l 617 309 l 771 309 l 771 154 l 617 154 l 617 0 l 771 0 l 926 0 l 1080 0 l 1080 154 l 926 154 l 926 309 l 926 463 l 926 617 l 926 771 l 926 926 l 771 926 l 771 771 l 771 617 l 771 463 l 617 463 l 463 463 l 309 463 l 309 617 l 309 771 l 154 771 l 154 617 l 154 463 l 154 309 l 154 154 l 0 154 l 0 0 m 309 771 l 463 771 l 463 926 l 309 926 l 309 771 m 463 926 l 617 926 l 771 926 l 771 1080 l 617 1080 l 463 1080 l 463 926 z "},"B":{"ha":926,"x_min":0,"x_max":771,"o":"m 0 0 l 154 0 l 309 0 l 463 0 l 617 0 l 617 154 l 463 154 l 309 154 l 309 309 l 309 463 l 463 463 l 617 463 l 617 617 l 463 617 l 309 617 l 309 771 l 309 926 l 463 926 l 617 926 l 617 1080 l 463 1080 l 309 1080 l 154 1080 l 0 1080 l 0 926 l 154 926 l 154 771 l 154 617 l 154 463 l 154 309 l 154 154 l 0 154 l 0 0 m 617 154 l 771 154 l 771 309 l 771 463 l 617 463 l 617 309 l 617 154 m 617 617 l 771 617 l 771 771 l 771 926 l 617 926 l 617 771 l 617 617 z "},"C":{"ha":926,"x_min":0,"x_max":771,"o":"m 0 154 l 154 154 l 154 309 l 154 463 l 154 617 l 154 771 l 0 771 l 0 617 l 0 463 l 0 309 l 0 154 m 154 0 l 309 0 l 463 0 l 617 0 l 617 154 l 463 154 l 309 154 l 154 154 l 154 0 m 154 771 l 309 771 l 309 926 l 154 926 l 154 771 m 309 926 l 463 926 l 617 926 l 617 1080 l 463 1080 l 309 1080 l 309 926 m 617 154 l 771 154 l 771 309 l 617 309 l 617 154 m 617 617 l 771 617 l 771 771 l 771 926 l 617 926 l 617 771 l 617 617 z "},"D":{"ha":1080,"x_min":0,"x_max":926,"o":"m 0 0 l 154 0 l 309 0 l 463 0 l 617 0 l 617 154 l 463 154 l 309 154 l 309 309 l 309 463 l 309 617 l 309 771 l 309 926 l 463 926 l 617 926 l 617 1080 l 463 1080 l 309 1080 l 154 1080 l 0 1080 l 0 926 l 154 926 l 154 771 l 154 617 l 154 463 l 154 309 l 154 154 l 0 154 l 0 0 m 617 154 l 771 154 l 771 309 l 617 309 l 617 154 m 617 771 l 771 771 l 771 926 l 617 926 l 617 771 m 771 309 l 926 309 l 926 463 l 926 617 l 926 771 l 771 771 l 771 617 l 771 463 l 771 309 z "},"E":{"ha":1080,"x_min":0,"x_max":926,"o":"m 0 0 l 154 0 l 309 0 l 463 0 l 617 0 l 771 0 l 926 0 l 926 154 l 926 309 l 771 309 l 771 154 l 617 154 l 463 154 l 309 154 l 309 309 l 309 463 l 463 463 l 617 463 l 617 617 l 463 617 l 309 617 l 309 771 l 309 926 l 463 926 l 617 926 l 771 926 l 771 771 l 771 617 l 926 617 l 926 771 l 926 926 l 926 1080 l 771 1080 l 617 1080 l 463 1080 l 309 1080 l 154 1080 l 0 1080 l 0 926 l 154 926 l 154 771 l 154 617 l 154 463 l 154 309 l 154 154 l 0 154 l 0 0 z "},"F":{"ha":1080,"x_min":0,"x_max":926,"o":"m 0 0 l 154 0 l 309 0 l 463 0 l 463 154 l 309 154 l 309 309 l 309 463 l 463 463 l 617 463 l 617 617 l 463 617 l 309 617 l 309 771 l 309 926 l 463 926 l 617 926 l 771 926 l 771 771 l 771 617 l 926 617 l 926 771 l 926 926 l 926 1080 l 771 1080 l 617 1080 l 463 1080 l 309 1080 l 154 1080 l 0 1080 l 0 926 l 154 926 l 154 771 l 154 617 l 154 463 l 154 309 l 154 154 l 0 154 l 0 0 z "},"G":{"ha":1234,"x_min":0,"x_max":1080,"o":"m 0 309 l 154 309 l 154 463 l 154 617 l 154 771 l 0 771 l 0 617 l 0 463 l 0 309 m 154 154 l 309 154 l 309 309 l 154 309 l 154 154 m 154 771 l 309 771 l 309 926 l 154 926 l 154 771 m 309 0 l 463 0 l 617 0 l 771 0 l 771 154 l 617 154 l 463 154 l 309 154 l 309 0 m 309 926 l 463 926 l 617 926 l 617 1080 l 463 1080 l 309 1080 l 309 926 m 463 463 l 617 463 l 771 463 l 771 309 l 771 154 l 926 154 l 926 309 l 926 463 l 1080 463 l 1080 617 l 926 617 l 771 617 l 617 617 l 463 617 l 463 463 m 617 771 l 771 771 l 771 926 l 617 926 l 617 771 z "},"H":{"ha":1234,"x_min":0,"x_max":1080,"o":"m 0 0 l 154 0 l 309 0 l 463 0 l 463 154 l 309 154 l 309 309 l 309 463 l 463 463 l 617 463 l 771 463 l 771 309 l 771 154 l 617 154 l 617 0 l 771 0 l 926 0 l 1080 0 l 1080 154 l 926 154 l 926 309 l 926 463 l 926 617 l 926 771 l 926 926 l 1080 926 l 1080 1080 l 926 1080 l 771 1080 l 617 1080 l 617 926 l 771 926 l 771 771 l 771 617 l 617 617 l 463 617 l 309 617 l 309 771 l 309 926 l 463 926 l 463 1080 l 309 1080 l 154 1080 l 0 1080 l 0 926 l 154 926 l 154 771 l 154 617 l 154 463 l 154 309 l 154 154 l 0 154 l 0 0 z "},"I":{"ha":617,"x_min":0,"x_max":463,"o":"m 0 0 l 154 0 l 309 0 l 463 0 l 463 154 l 309 154 l 309 309 l 309 463 l 309 617 l 309 771 l 309 926 l 463 926 l 463 1080 l 309 1080 l 154 1080 l 0 1080 l 0 926 l 154 926 l 154 771 l 154 617 l 154 463 l 154 309 l 154 154 l 0 154 l 0 0 z "},"J":{"ha":1080,"x_min":0,"x_max":926,"o":"m 0 154 l 154 154 l 154 309 l 154 463 l 0 463 l 0 309 l 0 154 m 154 0 l 309 0 l 463 0 l 617 0 l 617 154 l 463 154 l 309 154 l 154 154 l 154 0 m 154 463 l 309 463 l 309 617 l 154 617 l 154 463 m 463 926 l 617 926 l 617 771 l 617 617 l 617 463 l 617 309 l 617 154 l 771 154 l 771 309 l 771 463 l 771 617 l 771 771 l 771 926 l 926 926 l 926 1080 l 771 1080 l 617 1080 l 463 1080 l 463 926 z "},"K":{"ha":1234,"x_min":0,"x_max":1080,"o":"m 0 0 l 154 0 l 309 0 l 463 0 l 463 154 l 309 154 l 309 309 l 309 463 l 463 463 l 617 463 l 617 617 l 463 617 l 309 617 l 309 771 l 309 926 l 463 926 l 463 1080 l 309 1080 l 154 1080 l 0 1080 l 0 926 l 154 926 l 154 771 l 154 617 l 154 463 l 154 309 l 154 154 l 0 154 l 0 0 m 617 0 l 771 0 l 926 0 l 1080 0 l 1080 154 l 926 154 l 926 309 l 771 309 l 771 154 l 617 154 l 617 0 m 617 309 l 771 309 l 771 463 l 617 463 l 617 309 m 617 617 l 771 617 l 771 771 l 617 771 l 617 617 m 617 926 l 771 926 l 771 771 l 926 771 l 926 926 l 1080 926 l 1080 1080 l 926 1080 l 771 1080 l 617 1080 l 617 926 z "},"L":{"ha":1080,"x_min":0,"x_max":926,"o":"m 0 0 l 154 0 l 309 0 l 463 0 l 617 0 l 771 0 l 926 0 l 926 154 l 926 309 l 926 463 l 771 463 l 771 309 l 771 154 l 617 154 l 463 154 l 309 154 l 309 309 l 309 463 l 309 617 l 309 771 l 309 926 l 463 926 l 463 1080 l 309 1080 l 154 1080 l 0 1080 l 0 926 l 154 926 l 154 771 l 154 617 l 154 463 l 154 309 l 154 154 l 0 154 l 0 0 z "},"M":{"ha":1543,"x_min":0,"x_max":1389,"o":"m 0 0 l 154 0 l 309 0 l 463 0 l 463 154 l 309 154 l 309 309 l 309 463 l 309 617 l 309 771 l 463 771 l 463 926 l 309 926 l 309 1080 l 154 1080 l 0 1080 l 0 926 l 154 926 l 154 771 l 154 617 l 154 463 l 154 309 l 154 154 l 0 154 l 0 0 m 463 617 l 617 617 l 617 771 l 463 771 l 463 617 m 617 309 l 771 309 l 771 463 l 771 617 l 617 617 l 617 463 l 617 309 m 771 617 l 926 617 l 926 771 l 771 771 l 771 617 m 926 0 l 1080 0 l 1234 0 l 1389 0 l 1389 154 l 1234 154 l 1234 309 l 1234 463 l 1234 617 l 1234 771 l 1234 926 l 1389 926 l 1389 1080 l 1234 1080 l 1080 1080 l 1080 926 l 926 926 l 926 771 l 1080 771 l 1080 617 l 1080 463 l 1080 309 l 1080 154 l 926 154 l 926 0 z "},"N":{"ha":1234,"x_min":0,"x_max":1080,"o":"m 0 0 l 154 0 l 309 0 l 463 0 l 463 154 l 309 154 l 309 309 l 309 463 l 309 617 l 463 617 l 463 771 l 309 771 l 309 926 l 309 1080 l 154 1080 l 0 1080 l 0 926 l 154 926 l 154 771 l 154 617 l 154 463 l 154 309 l 154 154 l 0 154 l 0 0 m 463 463 l 617 463 l 617 617 l 463 617 l 463 463 m 617 309 l 771 309 l 771 154 l 771 0 l 926 0 l 1080 0 l 1080 154 l 926 154 l 926 309 l 926 463 l 926 617 l 926 771 l 926 926 l 1080 926 l 1080 1080 l 926 1080 l 771 1080 l 617 1080 l 617 926 l 771 926 l 771 771 l 771 617 l 771 463 l 617 463 l 617 309 z "},"O":{"ha":1080,"x_min":0,"x_max":926,"o":"m 0 154 l 154 154 l 154 309 l 154 463 l 154 617 l 154 771 l 0 771 l 0 617 l 0 463 l 0 309 l 0 154 m 154 0 l 309 0 l 463 0 l 617 0 l 617 154 l 463 154 l 309 154 l 154 154 l 154 0 m 154 771 l 309 771 l 309 926 l 154 926 l 154 771 m 309 926 l 463 926 l 617 926 l 771 926 l 771 1080 l 617 1080 l 463 1080 l 309 1080 l 309 926 m 617 154 l 771 154 l 771 309 l 617 309 l 617 154 m 771 309 l 926 309 l 926 463 l 926 617 l 926 771 l 926 926 l 771 926 l 771 771 l 771 617 l 771 463 l 771 309 z "},"P":{"ha":1080,"x_min":0,"x_max":926,"o":"m 0 0 l 154 0 l 309 0 l 463 0 l 463 154 l 309 154 l 309 309 l 463 309 l 617 309 l 771 309 l 771 463 l 617 463 l 463 463 l 309 463 l 309 617 l 309 771 l 309 926 l 463 926 l 617 926 l 771 926 l 771 1080 l 617 1080 l 463 1080 l 309 1080 l 154 1080 l 0 1080 l 0 926 l 154 926 l 154 771 l 154 617 l 154 463 l 154 309 l 154 154 l 0 154 l 0 0 m 771 463 l 926 463 l 926 617 l 926 771 l 926 926 l 771 926 l 771 771 l 771 617 l 771 463 z "},"Q":{"ha":1080,"x_min":0,"x_max":926,"o":"m 0 154 l 154 154 l 154 309 l 154 463 l 154 617 l 154 771 l 0 771 l 0 617 l 0 463 l 0 309 l 0 154 m 154 0 l 309 0 l 463 0 l 617 0 l 617 154 l 463 154 l 309 154 l 154 154 l 154 0 m 154 771 l 309 771 l 309 926 l 154 926 l 154 771 m 309 926 l 463 926 l 617 926 l 617 1080 l 463 1080 l 309 1080 l 309 926 m 463 309 l 617 309 l 617 463 l 463 463 l 463 309 m 617 154 l 771 154 l 771 309 l 617 309 l 617 154 m 617 771 l 771 771 l 771 926 l 617 926 l 617 771 m 771 0 l 926 0 l 926 154 l 771 154 l 771 0 m 771 309 l 926 309 l 926 463 l 926 617 l 926 771 l 771 771 l 771 617 l 771 463 l 771 309 z "},"R":{"ha":1234,"x_min":0,"x_max":1080,"o":"m 0 0 l 154 0 l 309 0 l 463 0 l 463 154 l 309 154 l 309 309 l 309 463 l 463 463 l 617 463 l 617 309 l 771 309 l 771 463 l 771 617 l 617 617 l 463 617 l 309 617 l 309 771 l 309 926 l 463 926 l 617 926 l 771 926 l 771 1080 l 617 1080 l 463 1080 l 309 1080 l 154 1080 l 0 1080 l 0 926 l 154 926 l 154 771 l 154 617 l 154 463 l 154 309 l 154 154 l 0 154 l 0 0 m 617 0 l 771 0 l 926 0 l 1080 0 l 1080 154 l 926 154 l 926 309 l 771 309 l 771 154 l 617 154 l 617 0 m 771 617 l 926 617 l 926 771 l 926 926 l 771 926 l 771 771 l 771 617 z "},"S":{"ha":1080,"x_min":0,"x_max":926,"o":"m 0 154 l 154 154 l 154 309 l 154 463 l 0 463 l 0 309 l 0 154 m 154 0 l 309 0 l 463 0 l 617 0 l 771 0 l 771 154 l 617 154 l 463 154 l 309 154 l 154 154 l 154 0 m 154 617 l 309 617 l 309 771 l 309 926 l 154 926 l 154 771 l 154 617 m 309 463 l 463 463 l 617 463 l 617 617 l 463 617 l 309 617 l 309 463 m 309 926 l 463 926 l 617 926 l 771 926 l 771 1080 l 617 1080 l 463 1080 l 309 1080 l 309 926 m 617 309 l 771 309 l 771 463 l 617 463 l 617 309 m 771 154 l 926 154 l 926 309 l 771 309 l 771 154 m 771 617 l 926 617 l 926 771 l 926 926 l 771 926 l 771 771 l 771 617 z "},"T":{"ha":1234,"x_min":0,"x_max":1080,"o":"m 0 617 l 154 617 l 154 771 l 154 926 l 309 926 l 463 926 l 463 771 l 463 617 l 463 463 l 463 309 l 463 154 l 309 154 l 309 0 l 463 0 l 617 0 l 771 0 l 771 154 l 617 154 l 617 309 l 617 463 l 617 617 l 617 771 l 617 926 l 771 926 l 926 926 l 926 771 l 926 617 l 1080 617 l 1080 771 l 1080 926 l 1080 1080 l 926 1080 l 771 1080 l 617 1080 l 463 1080 l 309 1080 l 154 1080 l 0 1080 l 0 926 l 0 771 l 0 617 z "},"U":{"ha":1234,"x_min":0,"x_max":1080,"o":"m 0 926 l 154 926 l 154 771 l 154 617 l 154 463 l 154 309 l 154 154 l 309 154 l 309 309 l 309 463 l 309 617 l 309 771 l 309 926 l 463 926 l 463 1080 l 309 1080 l 154 1080 l 0 1080 l 0 926 m 309 0 l 463 0 l 617 0 l 771 0 l 771 154 l 617 154 l 463 154 l 309 154 l 309 0 m 617 926 l 771 926 l 771 771 l 771 617 l 771 463 l 771 309 l 771 154 l 926 154 l 926 309 l 926 463 l 926 617 l 926 771 l 926 926 l 1080 926 l 1080 1080 l 926 1080 l 771 1080 l 617 1080 l 617 926 z "},"V":{"ha":1234,"x_min":0,"x_max":1080,"o":"m 0 926 l 154 926 l 154 771 l 154 617 l 309 617 l 309 771 l 309 926 l 463 926 l 463 1080 l 309 1080 l 154 1080 l 0 1080 l 0 926 m 309 309 l 463 309 l 463 463 l 463 617 l 309 617 l 309 463 l 309 309 m 463 0 l 617 0 l 617 154 l 617 309 l 463 309 l 463 154 l 463 0 m 617 309 l 771 309 l 771 463 l 771 617 l 617 617 l 617 463 l 617 309 m 617 926 l 771 926 l 771 771 l 771 617 l 926 617 l 926 771 l 926 926 l 1080 926 l 1080 1080 l 926 1080 l 771 1080 l 617 1080 l 617 926 z "},"W":{"ha":1543,"x_min":0,"x_max":1389,"o":"m 0 926 l 154 926 l 154 771 l 154 617 l 154 463 l 154 309 l 154 154 l 309 154 l 309 309 l 309 463 l 309 617 l 309 771 l 309 926 l 463 926 l 463 1080 l 309 1080 l 154 1080 l 0 1080 l 0 926 m 309 0 l 463 0 l 617 0 l 617 154 l 463 154 l 309 154 l 309 0 m 617 154 l 771 154 l 771 309 l 771 463 l 771 617 l 771 771 l 771 926 l 617 926 l 617 771 l 617 617 l 617 463 l 617 309 l 617 154 m 771 0 l 926 0 l 1080 0 l 1080 154 l 926 154 l 771 154 l 771 0 m 926 926 l 1080 926 l 1080 771 l 1080 617 l 1080 463 l 1080 309 l 1080 154 l 1234 154 l 1234 309 l 1234 463 l 1234 617 l 1234 771 l 1234 926 l 1389 926 l 1389 1080 l 1234 1080 l 1080 1080 l 926 1080 l 926 926 z "},"X":{"ha":1234,"x_min":0,"x_max":1080,"o":"m 0 0 l 154 0 l 309 0 l 463 0 l 463 154 l 309 154 l 309 309 l 154 309 l 154 154 l 0 154 l 0 0 m 0 926 l 154 926 l 154 771 l 309 771 l 309 926 l 463 926 l 463 1080 l 309 1080 l 154 1080 l 0 1080 l 0 926 m 309 309 l 463 309 l 463 463 l 309 463 l 309 309 m 309 617 l 463 617 l 463 771 l 309 771 l 309 617 m 463 463 l 617 463 l 617 617 l 463 617 l 463 463 m 617 0 l 771 0 l 926 0 l 1080 0 l 1080 154 l 926 154 l 926 309 l 771 309 l 771 154 l 617 154 l 617 0 m 617 309 l 771 309 l 771 463 l 617 463 l 617 309 m 617 617 l 771 617 l 771 771 l 617 771 l 617 617 m 617 926 l 771 926 l 771 771 l 926 771 l 926 926 l 1080 926 l 1080 1080 l 926 1080 l 771 1080 l 617 1080 l 617 926 z "},"Y":{"ha":1234,"x_min":0,"x_max":1080,"o":"m 0 926 l 154 926 l 154 771 l 154 617 l 309 617 l 309 771 l 309 926 l 463 926 l 463 1080 l 309 1080 l 154 1080 l 0 1080 l 0 926 m 309 0 l 463 0 l 617 0 l 771 0 l 771 154 l 617 154 l 617 309 l 617 463 l 463 463 l 463 309 l 463 154 l 309 154 l 309 0 m 309 463 l 463 463 l 463 617 l 309 617 l 309 463 m 617 463 l 771 463 l 771 617 l 617 617 l 617 463 m 617 926 l 771 926 l 771 771 l 771 617 l 926 617 l 926 771 l 926 926 l 1080 926 l 1080 1080 l 926 1080 l 771 1080 l 617 1080 l 617 926 z "},"Z":{"ha":926,"x_min":0,"x_max":771,"o":"m 0 0 l 154 0 l 309 0 l 463 0 l 617 0 l 771 0 l 771 154 l 771 309 l 617 309 l 617 154 l 463 154 l 309 154 l 154 154 l 154 309 l 0 309 l 0 154 l 0 0 m 0 771 l 154 771 l 154 926 l 309 926 l 463 926 l 617 926 l 617 771 l 771 771 l 771 926 l 771 1080 l 617 1080 l 463 1080 l 309 1080 l 154 1080 l 0 1080 l 0 926 l 0 771 m 154 309 l 309 309 l 309 463 l 154 463 l 154 309 m 309 463 l 463 463 l 463 617 l 309 617 l 309 463 m 463 617 l 617 617 l 617 771 l 463 771 l 463 617 z "},"[":{"ha":771,"x_min":0,"x_max":617,"o":"m 0 -155 l 154 -155 l 309 -155 l 463 -155 l 617 -155 l 617 0 l 463 0 l 309 0 l 154 0 l 154 154 l 154 309 l 154 463 l 154 617 l 154 771 l 154 926 l 309 926 l 463 926 l 617 926 l 617 1080 l 463 1080 l 309 1080 l 154 1080 l 0 1080 l 0 926 l 0 771 l 0 617 l 0 463 l 0 309 l 0 154 l 0 0 l 0 -155 z "},"\\":{"ha":1234,"x_min":0,"x_max":1080,"o":"m 0 926 l 154 926 l 154 1080 l 0 1080 l 0 926 m 154 771 l 309 771 l 309 926 l 154 926 l 154 771 m 309 617 l 463 617 l 463 771 l 309 771 l 309 617 m 463 463 l 617 463 l 617 617 l 463 617 l 463 463 m 617 309 l 771 309 l 771 463 l 617 463 l 617 309 m 771 154 l 926 154 l 926 309 l 771 309 l 771 154 m 926 0 l 1080 0 l 1080 154 l 926 154 l 926 0 z "},"]":{"ha":771,"x_min":0,"x_max":617,"o":"m 0 -155 l 154 -155 l 309 -155 l 463 -155 l 617 -155 l 617 0 l 617 154 l 617 309 l 617 463 l 617 617 l 617 771 l 617 926 l 617 1080 l 463 1080 l 309 1080 l 154 1080 l 0 1080 l 0 926 l 154 926 l 309 926 l 463 926 l 463 771 l 463 617 l 463 463 l 463 309 l 463 154 l 463 0 l 309 0 l 154 0 l 0 0 l 0 -155 z "},"^":{"ha":926,"x_min":0,"x_max":771,"o":"m 0 617 l 154 617 l 154 771 l 0 771 l 0 617 m 154 771 l 309 771 l 309 926 l 154 926 l 154 771 m 309 926 l 463 926 l 463 1080 l 309 1080 l 309 926 m 463 771 l 617 771 l 617 926 l 463 926 l 463 771 m 617 617 l 771 617 l 771 771 l 617 771 l 617 617 z "},"_":{"ha":926,"x_min":0,"x_max":771,"o":"m 0 0 l 154 0 l 309 0 l 463 0 l 617 0 l 771 0 l 771 154 l 617 154 l 463 154 l 309 154 l 154 154 l 0 154 l 0 0 z "},"`":{"ha":617,"x_min":154,"x_max":463,"o":"m 154 926 l 309 926 l 309 1080 l 154 1080 l 154 926 m 309 771 l 463 771 l 463 926 l 309 926 l 309 771 z "},"a":{"ha":1080,"x_min":0,"x_max":926,"o":"m 0 154 l 154 154 l 154 309 l 154 463 l 0 463 l 0 309 l 0 154 m 154 0 l 309 0 l 463 0 l 617 0 l 771 0 l 926 0 l 926 154 l 771 154 l 771 309 l 771 463 l 771 617 l 771 771 l 617 771 l 617 617 l 463 617 l 309 617 l 154 617 l 154 463 l 309 463 l 463 463 l 617 463 l 617 309 l 617 154 l 463 154 l 309 154 l 154 154 l 154 0 m 154 771 l 309 771 l 463 771 l 617 771 l 617 926 l 463 926 l 309 926 l 154 926 l 154 771 z "},"b":{"ha":1080,"x_min":0,"x_max":926,"o":"m 0 0 l 154 0 l 309 0 l 463 0 l 617 0 l 771 0 l 771 154 l 617 154 l 463 154 l 309 154 l 309 309 l 309 463 l 309 617 l 463 617 l 617 617 l 617 771 l 463 771 l 309 771 l 309 926 l 309 1080 l 154 1080 l 0 1080 l 0 926 l 154 926 l 154 771 l 154 617 l 154 463 l 154 309 l 154 154 l 0 154 l 0 0 m 617 463 l 771 463 l 771 617 l 617 617 l 617 463 m 771 154 l 926 154 l 926 309 l 926 463 l 771 463 l 771 309 l 771 154 z "},"c":{"ha":926,"x_min":0,"x_max":771,"o":"m 0 154 l 154 154 l 154 309 l 154 463 l 154 617 l 154 771 l 0 771 l 0 617 l 0 463 l 0 309 l 0 154 m 154 0 l 309 0 l 463 0 l 617 0 l 617 154 l 463 154 l 309 154 l 154 154 l 154 0 m 154 771 l 309 771 l 463 771 l 463 926 l 309 926 l 154 926 l 154 771 m 463 617 l 617 617 l 617 771 l 463 771 l 463 617 m 617 154 l 771 154 l 771 309 l 617 309 l 617 154 z "},"d":{"ha":1080,"x_min":0,"x_max":926,"o":"m 0 154 l 154 154 l 154 309 l 154 463 l 0 463 l 0 309 l 0 154 m 154 0 l 309 0 l 463 0 l 617 0 l 771 0 l 926 0 l 926 154 l 771 154 l 771 309 l 771 463 l 771 617 l 771 771 l 771 926 l 926 926 l 926 1080 l 771 1080 l 617 1080 l 617 926 l 617 771 l 463 771 l 309 771 l 309 617 l 463 617 l 617 617 l 617 463 l 617 309 l 617 154 l 463 154 l 309 154 l 154 154 l 154 0 m 154 463 l 309 463 l 309 617 l 154 617 l 154 463 z "},"e":{"ha":1080,"x_min":0,"x_max":926,"o":"m 0 154 l 154 154 l 154 309 l 309 309 l 463 309 l 617 309 l 617 463 l 463 463 l 309 463 l 154 463 l 154 617 l 0 617 l 0 463 l 0 309 l 0 154 m 154 0 l 309 0 l 463 0 l 617 0 l 771 0 l 771 154 l 617 154 l 463 154 l 309 154 l 154 154 l 154 0 m 154 617 l 309 617 l 309 771 l 154 771 l 154 617 m 309 771 l 463 771 l 617 771 l 617 926 l 463 926 l 309 926 l 309 771 m 617 463 l 771 463 l 771 617 l 771 771 l 617 771 l 617 617 l 617 463 m 771 154 l 926 154 l 926 309 l 771 309 l 771 154 z "},"f":{"ha":1080,"x_min":0,"x_max":926,"o":"m 0 617 l 154 617 l 309 617 l 309 463 l 309 309 l 309 154 l 154 154 l 154 0 l 309 0 l 463 0 l 617 0 l 617 154 l 463 154 l 463 309 l 463 463 l 463 617 l 617 617 l 771 617 l 771 771 l 617 771 l 463 771 l 463 926 l 309 926 l 309 771 l 154 771 l 0 771 l 0 617 m 463 926 l 617 926 l 771 926 l 926 926 l 926 1080 l 771 1080 l 617 1080 l 463 1080 l 463 926 z "},"g":{"ha":926,"x_min":0,"x_max":771,"o":"m 0 309 l 154 309 l 154 463 l 154 617 l 0 617 l 0 463 l 0 309 m 154 -155 l 309 -155 l 463 -155 l 617 -155 l 617 0 l 463 0 l 309 0 l 154 0 l 154 -155 m 154 154 l 309 154 l 463 154 l 617 154 l 617 0 l 771 0 l 771 154 l 771 309 l 771 463 l 771 617 l 771 771 l 771 926 l 617 926 l 463 926 l 309 926 l 309 771 l 463 771 l 617 771 l 617 617 l 617 463 l 617 309 l 463 309 l 309 309 l 154 309 l 154 154 m 154 617 l 309 617 l 309 771 l 154 771 l 154 617 z "},"h":{"ha":1234,"x_min":0,"x_max":1080,"o":"m 0 0 l 154 0 l 309 0 l 463 0 l 463 154 l 309 154 l 309 309 l 309 463 l 463 463 l 463 617 l 309 617 l 309 771 l 309 926 l 309 1080 l 154 1080 l 0 1080 l 0 926 l 154 926 l 154 771 l 154 617 l 154 463 l 154 309 l 154 154 l 0 154 l 0 0 m 463 617 l 617 617 l 771 617 l 771 771 l 617 771 l 463 771 l 463 617 m 617 0 l 771 0 l 926 0 l 1080 0 l 1080 154 l 926 154 l 926 309 l 926 463 l 926 617 l 771 617 l 771 463 l 771 309 l 771 154 l 617 154 l 617 0 z "},"i":{"ha":926,"x_min":0,"x_max":771,"o":"m 0 0 l 154 0 l 309 0 l 463 0 l 617 0 l 771 0 l 771 154 l 617 154 l 463 154 l 463 309 l 463 463 l 463 617 l 463 771 l 309 771 l 154 771 l 154 617 l 309 617 l 309 463 l 309 309 l 309 154 l 154 154 l 0 154 l 0 0 m 309 926 l 463 926 l 463 1080 l 309 1080 l 309 926 z "},"j":{"ha":926,"x_min":0,"x_max":771,"o":"m 0 0 l 154 0 l 154 154 l 154 309 l 0 309 l 0 154 l 0 0 m 154 -155 l 309 -155 l 463 -155 l 617 -155 l 617 0 l 463 0 l 309 0 l 154 0 l 154 -155 m 154 309 l 309 309 l 309 463 l 154 463 l 154 309 m 617 0 l 771 0 l 771 154 l 771 309 l 771 463 l 771 617 l 771 771 l 617 771 l 617 617 l 617 463 l 617 309 l 617 154 l 617 0 m 617 926 l 771 926 l 771 1080 l 617 1080 l 617 926 z "},"k":{"ha":1080,"x_min":0,"x_max":926,"o":"m 0 0 l 154 0 l 309 0 l 463 0 l 463 154 l 309 154 l 309 309 l 463 309 l 617 309 l 617 463 l 617 617 l 463 617 l 463 463 l 309 463 l 309 617 l 309 771 l 309 926 l 309 1080 l 154 1080 l 0 1080 l 0 926 l 154 926 l 154 771 l 154 617 l 154 463 l 154 309 l 154 154 l 0 154 l 0 0 m 463 771 l 617 771 l 617 617 l 771 617 l 771 771 l 926 771 l 926 926 l 771 926 l 617 926 l 463 926 l 463 771 m 617 0 l 771 0 l 926 0 l 926 154 l 771 154 l 771 309 l 617 309 l 617 154 l 617 0 z "},"l":{"ha":617,"x_min":0,"x_max":463,"o":"m 0 0 l 154 0 l 309 0 l 463 0 l 463 154 l 309 154 l 309 309 l 309 463 l 309 617 l 309 771 l 309 926 l 309 1080 l 154 1080 l 0 1080 l 0 926 l 154 926 l 154 771 l 154 617 l 154 463 l 154 309 l 154 154 l 0 154 l 0 0 z "},"m":{"ha":1543,"x_min":0,"x_max":1389,"o":"m 0 0 l 154 0 l 309 0 l 309 154 l 309 309 l 309 463 l 309 617 l 309 771 l 154 771 l 154 617 l 154 463 l 154 309 l 154 154 l 0 154 l 0 0 m 0 771 l 154 771 l 154 926 l 0 926 l 0 771 m 309 771 l 463 771 l 617 771 l 617 926 l 463 926 l 309 926 l 309 771 m 617 0 l 771 0 l 771 154 l 771 309 l 771 463 l 771 617 l 771 771 l 617 771 l 617 617 l 617 463 l 617 309 l 617 154 l 617 0 m 771 771 l 926 771 l 1080 771 l 1080 926 l 926 926 l 771 926 l 771 771 m 1080 0 l 1234 0 l 1389 0 l 1389 154 l 1234 154 l 1234 309 l 1234 463 l 1234 617 l 1234 771 l 1080 771 l 1080 617 l 1080 463 l 1080 309 l 1080 154 l 1080 0 z "},"n":{"ha":1234,"x_min":0,"x_max":1080,"o":"m 0 0 l 154 0 l 309 0 l 463 0 l 463 154 l 309 154 l 309 309 l 309 463 l 309 617 l 463 617 l 463 771 l 309 771 l 309 926 l 154 926 l 0 926 l 0 771 l 154 771 l 154 617 l 154 463 l 154 309 l 154 154 l 0 154 l 0 0 m 463 771 l 617 771 l 771 771 l 771 926 l 617 926 l 463 926 l 463 771 m 617 0 l 771 0 l 926 0 l 1080 0 l 1080 154 l 926 154 l 926 309 l 926 463 l 926 617 l 926 771 l 771 771 l 771 617 l 771 463 l 771 309 l 771 154 l 617 154 l 617 0 z "},"o":{"ha":926,"x_min":0,"x_max":771,"o":"m 0 154 l 154 154 l 154 309 l 154 463 l 154 617 l 154 771 l 0 771 l 0 617 l 0 463 l 0 309 l 0 154 m 154 0 l 309 0 l 463 0 l 617 0 l 617 154 l 463 154 l 309 154 l 154 154 l 154 0 m 154 771 l 309 771 l 463 771 l 617 771 l 617 926 l 463 926 l 309 926 l 154 926 l 154 771 m 617 154 l 771 154 l 771 309 l 771 463 l 771 617 l 771 771 l 617 771 l 617 617 l 617 463 l 617 309 l 617 154 z "},"p":{"ha":926,"x_min":0,"x_max":771,"o":"m 0 -155 l 154 -155 l 154 0 l 154 154 l 309 154 l 463 154 l 617 154 l 617 309 l 463 309 l 309 309 l 154 309 l 154 463 l 154 617 l 154 771 l 0 771 l 0 617 l 0 463 l 0 309 l 0 154 l 0 0 l 0 -155 m 154 771 l 309 771 l 463 771 l 463 926 l 309 926 l 154 926 l 154 771 m 463 617 l 617 617 l 617 771 l 463 771 l 463 617 m 617 309 l 771 309 l 771 463 l 771 617 l 617 617 l 617 463 l 617 309 z "},"q":{"ha":926,"x_min":0,"x_max":771,"o":"m 0 309 l 154 309 l 154 463 l 154 617 l 0 617 l 0 463 l 0 309 m 154 154 l 309 154 l 463 154 l 617 154 l 617 0 l 617 -155 l 771 -155 l 771 0 l 771 154 l 771 309 l 771 463 l 771 617 l 771 771 l 617 771 l 617 617 l 617 463 l 617 309 l 463 309 l 309 309 l 154 309 l 154 154 m 154 617 l 309 617 l 309 771 l 154 771 l 154 617 m 309 771 l 463 771 l 617 771 l 617 926 l 463 926 l 309 926 l 309 771 z "},"r":{"ha":1080,"x_min":0,"x_max":926,"o":"m 0 0 l 154 0 l 309 0 l 463 0 l 463 154 l 309 154 l 309 309 l 309 463 l 309 617 l 309 771 l 154 771 l 154 617 l 154 463 l 154 309 l 154 154 l 0 154 l 0 0 m 0 771 l 154 771 l 154 926 l 0 926 l 0 771 m 309 771 l 463 771 l 617 771 l 771 771 l 771 926 l 617 926 l 463 926 l 309 926 l 309 771 m 617 463 l 771 463 l 771 617 l 617 617 l 617 463 m 771 617 l 926 617 l 926 771 l 771 771 l 771 617 z "},"s":{"ha":926,"x_min":0,"x_max":771,"o":"m 0 154 l 154 154 l 154 309 l 0 309 l 0 154 m 0 617 l 154 617 l 154 771 l 0 771 l 0 617 m 154 0 l 309 0 l 463 0 l 617 0 l 617 154 l 463 154 l 309 154 l 154 154 l 154 0 m 154 463 l 309 463 l 463 463 l 463 617 l 309 617 l 154 617 l 154 463 m 154 771 l 309 771 l 463 771 l 617 771 l 617 926 l 463 926 l 309 926 l 154 926 l 154 771 m 463 309 l 617 309 l 617 463 l 463 463 l 463 309 m 617 154 l 771 154 l 771 309 l 617 309 l 617 154 m 617 617 l 771 617 l 771 771 l 617 771 l 617 617 z "},"t":{"ha":1080,"x_min":0,"x_max":926,"o":"m 0 617 l 154 617 l 309 617 l 309 463 l 309 309 l 309 154 l 463 154 l 463 309 l 463 463 l 463 617 l 617 617 l 771 617 l 771 771 l 617 771 l 463 771 l 463 926 l 463 1080 l 309 1080 l 309 926 l 309 771 l 154 771 l 0 771 l 0 617 m 463 0 l 617 0 l 771 0 l 771 154 l 617 154 l 463 154 l 463 0 m 771 154 l 926 154 l 926 309 l 926 463 l 771 463 l 771 309 l 771 154 z "},"u":{"ha":1234,"x_min":0,"x_max":1080,"o":"m 0 771 l 154 771 l 154 617 l 154 463 l 154 309 l 154 154 l 309 154 l 309 309 l 309 463 l 309 617 l 309 771 l 463 771 l 463 926 l 309 926 l 154 926 l 0 926 l 0 771 m 309 0 l 463 0 l 617 0 l 617 154 l 463 154 l 309 154 l 309 0 m 617 154 l 771 154 l 771 0 l 926 0 l 1080 0 l 1080 154 l 926 154 l 926 309 l 926 463 l 926 617 l 926 771 l 1080 771 l 1080 926 l 926 926 l 771 926 l 617 926 l 617 771 l 771 771 l 771 617 l 771 463 l 771 309 l 617 309 l 617 154 z "},"v":{"ha":1234,"x_min":0,"x_max":1080,"o":"m 0 771 l 154 771 l 154 617 l 154 463 l 309 463 l 309 617 l 309 771 l 463 771 l 463 926 l 309 926 l 154 926 l 0 926 l 0 771 m 309 309 l 463 309 l 463 463 l 309 463 l 309 309 m 463 0 l 617 0 l 617 154 l 617 309 l 463 309 l 463 154 l 463 0 m 617 309 l 771 309 l 771 463 l 617 463 l 617 309 m 617 771 l 771 771 l 771 617 l 771 463 l 926 463 l 926 617 l 926 771 l 1080 771 l 1080 926 l 926 926 l 771 926 l 617 926 l 617 771 z "},"w":{"ha":1543,"x_min":0,"x_max":1389,"o":"m 0 771 l 154 771 l 154 617 l 154 463 l 154 309 l 154 154 l 309 154 l 309 309 l 309 463 l 309 617 l 309 771 l 463 771 l 463 926 l 309 926 l 154 926 l 0 926 l 0 771 m 309 0 l 463 0 l 617 0 l 617 154 l 463 154 l 309 154 l 309 0 m 617 154 l 771 154 l 771 309 l 771 463 l 771 617 l 771 771 l 617 771 l 617 617 l 617 463 l 617 309 l 617 154 m 771 0 l 926 0 l 1080 0 l 1080 154 l 926 154 l 771 154 l 771 0 m 926 771 l 1080 771 l 1080 617 l 1080 463 l 1080 309 l 1080 154 l 1234 154 l 1234 309 l 1234 463 l 1234 617 l 1234 771 l 1389 771 l 1389 926 l 1234 926 l 1080 926 l 926 926 l 926 771 z "},"x":{"ha":1234,"x_min":0,"x_max":1080,"o":"m 0 0 l 154 0 l 309 0 l 463 0 l 463 154 l 309 154 l 309 309 l 154 309 l 154 154 l 0 154 l 0 0 m 0 771 l 154 771 l 154 617 l 309 617 l 309 771 l 463 771 l 463 926 l 309 926 l 154 926 l 0 926 l 0 771 m 309 309 l 463 309 l 463 463 l 617 463 l 617 309 l 771 309 l 771 463 l 771 617 l 617 617 l 463 617 l 309 617 l 309 463 l 309 309 m 617 0 l 771 0 l 926 0 l 1080 0 l 1080 154 l 926 154 l 926 309 l 771 309 l 771 154 l 617 154 l 617 0 m 617 771 l 771 771 l 771 617 l 926 617 l 926 771 l 1080 771 l 1080 926 l 926 926 l 771 926 l 617 926 l 617 771 z "},"y":{"ha":1234,"x_min":0,"x_max":1080,"o":"m 0 0 l 154 0 l 154 154 l 0 154 l 0 0 m 0 771 l 154 771 l 154 617 l 154 463 l 309 463 l 309 617 l 309 771 l 463 771 l 463 926 l 309 926 l 154 926 l 0 926 l 0 771 m 154 -155 l 309 -155 l 463 -155 l 617 -155 l 617 0 l 463 0 l 309 0 l 154 0 l 154 -155 m 309 309 l 463 309 l 617 309 l 771 309 l 771 154 l 926 154 l 926 309 l 926 463 l 926 617 l 926 771 l 1080 771 l 1080 926 l 926 926 l 771 926 l 617 926 l 617 771 l 771 771 l 771 617 l 771 463 l 617 463 l 463 463 l 309 463 l 309 309 m 617 0 l 771 0 l 771 154 l 617 154 l 617 0 z "},"z":{"ha":926,"x_min":0,"x_max":771,"o":"m 0 0 l 154 0 l 309 0 l 463 0 l 617 0 l 771 0 l 771 154 l 771 309 l 617 309 l 617 154 l 463 154 l 309 154 l 154 154 l 154 309 l 0 309 l 0 154 l 0 0 m 0 617 l 154 617 l 154 771 l 309 771 l 463 771 l 463 617 l 617 617 l 617 771 l 617 926 l 463 926 l 309 926 l 154 926 l 0 926 l 0 771 l 0 617 m 154 309 l 309 309 l 309 463 l 154 463 l 154 309 m 309 463 l 463 463 l 463 617 l 309 617 l 309 463 z "},"{":{"ha":771,"x_min":0,"x_max":617,"o":"m 0 309 l 154 309 l 154 463 l 154 617 l 0 617 l 0 463 l 0 309 m 154 0 l 309 0 l 309 154 l 309 309 l 154 309 l 154 154 l 154 0 m 154 617 l 309 617 l 309 771 l 309 926 l 154 926 l 154 771 l 154 617 m 309 -155 l 463 -155 l 617 -155 l 617 0 l 463 0 l 309 0 l 309 -155 m 309 926 l 463 926 l 617 926 l 617 1080 l 463 1080 l 309 1080 l 309 926 z "},"|":{"ha":309,"x_min":0,"x_max":154,"o":"m 0 -155 l 154 -155 l 154 0 l 154 154 l 154 309 l 154 463 l 154 617 l 154 771 l 154 926 l 154 1080 l 0 1080 l 0 926 l 0 771 l 0 617 l 0 463 l 0 309 l 0 154 l 0 0 l 0 -155 z "},"}":{"ha":771,"x_min":0,"x_max":617,"o":"m 0 -155 l 154 -155 l 309 -155 l 309 0 l 154 0 l 0 0 l 0 -155 m 0 926 l 154 926 l 309 926 l 309 1080 l 154 1080 l 0 1080 l 0 926 m 309 0 l 463 0 l 463 154 l 463 309 l 309 309 l 309 154 l 309 0 m 309 617 l 463 617 l 463 771 l 463 926 l 309 926 l 309 771 l 309 617 m 463 309 l 617 309 l 617 463 l 617 617 l 463 617 l 463 463 l 463 309 z "},"~":{"ha":926,"x_min":0,"x_max":771,"o":"m 0 463 l 154 463 l 154 617 l 0 617 l 0 463 m 154 617 l 309 617 l 309 771 l 154 771 l 154 617 m 309 463 l 463 463 l 463 617 l 309 617 l 309 463 m 463 309 l 617 309 l 617 463 l 463 463 l 463 309 m 617 463 l 771 463 l 771 617 l 617 617 l 617 463 z "}," ":{"ha":617,"x_min":0,"x_max":0,"o":""},"¡":{"ha":309,"x_min":0,"x_max":154,"o":"m 0 -155 l 154 -155 l 154 0 l 154 154 l 154 309 l 154 463 l 154 617 l 0 617 l 0 463 l 0 309 l 0 154 l 0 0 l 0 -155 m 0 771 l 154 771 l 154 926 l 0 926 l 0 771 z "},"¢":{"ha":926,"x_min":0,"x_max":771,"o":"m 0 154 l 154 154 l 154 309 l 154 463 l 154 617 l 154 771 l 0 771 l 0 617 l 0 463 l 0 309 l 0 154 m 154 0 l 309 0 l 309 -155 l 463 -155 l 463 0 l 617 0 l 617 154 l 463 154 l 463 309 l 463 463 l 463 617 l 463 771 l 617 771 l 617 926 l 463 926 l 463 1080 l 309 1080 l 309 926 l 154 926 l 154 771 l 309 771 l 309 617 l 309 463 l 309 309 l 309 154 l 154 154 l 154 0 m 617 154 l 771 154 l 771 309 l 617 309 l 617 154 m 617 617 l 771 617 l 771 771 l 617 771 l 617 617 z "},"£":{"ha":926,"x_min":0,"x_max":771,"o":"m 0 0 l 154 0 l 309 0 l 463 0 l 617 0 l 771 0 l 771 154 l 617 154 l 463 154 l 309 154 l 154 154 l 154 309 l 0 309 l 0 154 l 0 0 m 0 463 l 154 463 l 154 309 l 309 309 l 309 463 l 463 463 l 617 463 l 617 617 l 463 617 l 309 617 l 309 771 l 309 926 l 154 926 l 154 771 l 154 617 l 0 617 l 0 463 m 309 926 l 463 926 l 617 926 l 617 1080 l 463 1080 l 309 1080 l 309 926 m 617 771 l 771 771 l 771 926 l 617 926 l 617 771 z "},"¤":{"ha":926,"x_min":0,"x_max":771,"o":"m 0 154 l 154 154 l 154 309 l 0 309 l 0 154 m 0 771 l 154 771 l 154 926 l 0 926 l 0 771 m 154 309 l 309 309 l 463 309 l 617 309 l 617 463 l 617 617 l 617 771 l 463 771 l 309 771 l 154 771 l 154 617 l 154 463 l 154 309 m 309 463 l 309 617 l 463 617 l 463 463 l 309 463 m 617 154 l 771 154 l 771 309 l 617 309 l 617 154 m 617 771 l 771 771 l 771 926 l 617 926 l 617 771 z "},"¥":{"ha":1234,"x_min":0,"x_max":1080,"o":"m 0 926 l 154 926 l 154 771 l 309 771 l 309 926 l 463 926 l 463 1080 l 309 1080 l 154 1080 l 0 1080 l 0 926 m 154 309 l 309 309 l 463 309 l 463 154 l 309 154 l 309 0 l 463 0 l 617 0 l 771 0 l 771 154 l 617 154 l 617 309 l 771 309 l 926 309 l 926 463 l 771 463 l 617 463 l 617 617 l 463 617 l 463 463 l 309 463 l 154 463 l 154 309 m 309 617 l 463 617 l 463 771 l 309 771 l 309 617 m 617 617 l 771 617 l 771 771 l 617 771 l 617 617 m 617 926 l 771 926 l 771 771 l 926 771 l 926 926 l 1080 926 l 1080 1080 l 926 1080 l 771 1080 l 617 1080 l 617 926 z "},"¦":{"ha":309,"x_min":0,"x_max":154,"o":"m 0 -155 l 154 -155 l 154 0 l 154 154 l 154 309 l 0 309 l 0 154 l 0 0 l 0 -155 m 0 617 l 154 617 l 154 771 l 154 926 l 154 1080 l 0 1080 l 0 926 l 0 771 l 0 617 z "},"§":{"ha":1080,"x_min":0,"x_max":926,"o":"m 0 0 l 154 0 l 154 154 l 0 154 l 0 0 m 0 617 l 154 617 l 154 771 l 154 926 l 0 926 l 0 771 l 0 617 m 154 -155 l 309 -155 l 463 -155 l 617 -155 l 771 -155 l 771 0 l 617 0 l 463 0 l 309 0 l 154 0 l 154 -155 m 154 309 l 309 309 l 309 463 l 309 617 l 154 617 l 154 463 l 154 309 m 154 926 l 309 926 l 463 926 l 617 926 l 771 926 l 771 1080 l 617 1080 l 463 1080 l 309 1080 l 154 1080 l 154 926 m 309 154 l 463 154 l 617 154 l 617 309 l 463 309 l 309 309 l 309 154 m 309 617 l 463 617 l 617 617 l 617 771 l 463 771 l 309 771 l 309 617 m 617 309 l 771 309 l 771 463 l 771 617 l 617 617 l 617 463 l 617 309 m 771 0 l 926 0 l 926 154 l 926 309 l 771 309 l 771 154 l 771 0 m 771 771 l 926 771 l 926 926 l 771 926 l 771 771 z "},"©":{"ha":1234,"x_min":0,"x_max":1080,"o":"m 0 309 l 154 309 l 154 463 l 154 617 l 154 771 l 0 771 l 0 617 l 0 463 l 0 309 m 154 154 l 309 154 l 309 309 l 154 309 l 154 154 m 154 771 l 309 771 l 309 926 l 154 926 l 154 771 m 309 0 l 463 0 l 617 0 l 771 0 l 771 154 l 617 154 l 463 154 l 309 154 l 309 0 m 309 309 l 463 309 l 617 309 l 771 309 l 771 463 l 617 463 l 463 463 l 463 617 l 617 617 l 771 617 l 771 771 l 617 771 l 463 771 l 309 771 l 309 617 l 309 463 l 309 309 m 309 926 l 463 926 l 617 926 l 771 926 l 771 1080 l 617 1080 l 463 1080 l 309 1080 l 309 926 m 771 154 l 926 154 l 926 309 l 771 309 l 771 154 m 771 771 l 926 771 l 926 926 l 771 926 l 771 771 m 926 309 l 1080 309 l 1080 463 l 1080 617 l 1080 771 l 926 771 l 926 617 l 926 463 l 926 309 z "},"«":{"ha":1080,"x_min":0,"x_max":926,"o":"m 0 309 l 154 309 l 154 463 l 0 463 l 0 309 m 154 154 l 309 154 l 309 309 l 154 309 l 154 154 m 154 463 l 309 463 l 309 617 l 154 617 l 154 463 m 309 0 l 463 0 l 463 154 l 309 154 l 309 0 m 309 617 l 463 617 l 463 771 l 309 771 l 309 617 m 463 309 l 617 309 l 617 463 l 463 463 l 463 309 m 617 154 l 771 154 l 771 309 l 617 309 l 617 154 m 617 463 l 771 463 l 771 617 l 617 617 l 617 463 m 771 0 l 926 0 l 926 154 l 771 154 l 771 0 m 771 617 l 926 617 l 926 771 l 771 771 l 771 617 z "},"¬":{"ha":617,"x_min":0,"x_max":463,"o":"m 0 463 l 154 463 l 309 463 l 309 309 l 463 309 l 463 463 l 463 617 l 309 617 l 154 617 l 0 617 l 0 463 z "},"­":{"ha":617,"x_min":0,"x_max":463,"o":"m 0 463 l 154 463 l 309 463 l 463 463 l 463 617 l 309 617 l 154 617 l 0 617 l 0 463 z "},"®":{"ha":1234,"x_min":0,"x_max":1080,"o":"m 0 309 l 154 309 l 154 463 l 154 617 l 154 771 l 0 771 l 0 617 l 0 463 l 0 309 m 154 154 l 309 154 l 309 309 l 154 309 l 154 154 m 154 771 l 309 771 l 309 926 l 154 926 l 154 771 m 309 0 l 463 0 l 617 0 l 771 0 l 771 154 l 617 154 l 463 154 l 309 154 l 309 0 m 309 309 l 463 309 l 463 463 l 617 463 l 617 617 l 617 771 l 463 771 l 309 771 l 309 617 l 309 463 l 309 309 m 309 926 l 463 926 l 617 926 l 771 926 l 771 1080 l 617 1080 l 463 1080 l 309 1080 l 309 926 m 617 309 l 771 309 l 771 463 l 617 463 l 617 309 m 771 154 l 926 154 l 926 309 l 771 309 l 771 154 m 771 771 l 926 771 l 926 926 l 771 926 l 771 771 m 926 309 l 1080 309 l 1080 463 l 1080 617 l 1080 771 l 926 771 l 926 617 l 926 463 l 926 309 z "},"°":{"ha":771,"x_min":0,"x_max":617,"o":"m 0 617 l 154 617 l 154 771 l 154 926 l 0 926 l 0 771 l 0 617 m 154 463 l 309 463 l 463 463 l 463 617 l 309 617 l 154 617 l 154 463 m 154 926 l 309 926 l 463 926 l 463 1080 l 309 1080 l 154 1080 l 154 926 m 463 617 l 617 617 l 617 771 l 617 926 l 463 926 l 463 771 l 463 617 z "},"±":{"ha":617,"x_min":0,"x_max":463,"o":"m 0 0 l 154 0 l 309 0 l 463 0 l 463 154 l 309 154 l 154 154 l 0 154 l 0 0 m 0 463 l 154 463 l 154 309 l 309 309 l 309 463 l 463 463 l 463 617 l 309 617 l 309 771 l 154 771 l 154 617 l 0 617 l 0 463 z "},"µ":{"ha":1234,"x_min":0,"x_max":1080,"o":"m 0 771 l 154 771 l 154 617 l 154 463 l 154 309 l 154 154 l 154 0 l 154 -155 l 309 -155 l 309 0 l 309 154 l 463 154 l 463 309 l 309 309 l 309 463 l 309 617 l 309 771 l 463 771 l 463 926 l 309 926 l 154 926 l 0 926 l 0 771 m 463 0 l 617 0 l 771 0 l 771 154 l 617 154 l 463 154 l 463 0 m 617 771 l 771 771 l 771 617 l 771 463 l 771 309 l 771 154 l 926 154 l 926 309 l 926 463 l 926 617 l 926 771 l 1080 771 l 1080 926 l 926 926 l 771 926 l 617 926 l 617 771 z "},"¶":{"ha":1080,"x_min":0,"x_max":926,"o":"m 0 617 l 154 617 l 154 463 l 309 463 l 309 309 l 309 154 l 309 0 l 309 -155 l 463 -155 l 463 0 l 463 154 l 463 309 l 463 463 l 463 617 l 463 771 l 463 926 l 617 926 l 617 771 l 617 617 l 617 463 l 617 309 l 617 154 l 617 0 l 617 -155 l 771 -155 l 771 0 l 771 154 l 771 309 l 771 463 l 771 617 l 771 771 l 771 926 l 926 926 l 926 1080 l 771 1080 l 617 1080 l 463 1080 l 309 1080 l 154 1080 l 154 926 l 0 926 l 0 771 l 0 617 z "},"·":{"ha":309,"x_min":0,"x_max":154,"o":"m 0 463 l 154 463 l 154 617 l 0 617 l 0 463 z "},"»":{"ha":1080,"x_min":0,"x_max":926,"o":"m 0 0 l 154 0 l 154 154 l 0 154 l 0 0 m 0 617 l 154 617 l 154 771 l 0 771 l 0 617 m 154 154 l 309 154 l 309 309 l 154 309 l 154 154 m 154 463 l 309 463 l 309 617 l 154 617 l 154 463 m 309 309 l 463 309 l 463 463 l 309 463 l 309 309 m 463 0 l 617 0 l 617 154 l 463 154 l 463 0 m 463 617 l 617 617 l 617 771 l 463 771 l 463 617 m 617 154 l 771 154 l 771 309 l 617 309 l 617 154 m 617 463 l 771 463 l 771 617 l 617 617 l 617 463 m 771 309 l 926 309 l 926 463 l 771 463 l 771 309 z "},"¿":{"ha":926,"x_min":0,"x_max":771,"o":"m 0 0 l 154 0 l 154 154 l 154 309 l 0 309 l 0 154 l 0 0 m 154 -155 l 309 -155 l 463 -155 l 617 -155 l 617 0 l 463 0 l 309 0 l 154 0 l 154 -155 m 154 309 l 309 309 l 309 463 l 154 463 l 154 309 m 309 463 l 463 463 l 463 617 l 309 617 l 309 463 m 309 771 l 463 771 l 463 926 l 309 926 l 309 771 m 617 0 l 771 0 l 771 154 l 617 154 l 617 0 z "},"Æ":{"ha":1543,"x_min":0,"x_max":1389,"o":"m 0 0 l 154 0 l 309 0 l 463 0 l 463 154 l 309 154 l 309 309 l 309 463 l 463 463 l 617 463 l 617 309 l 617 154 l 617 0 l 771 0 l 926 0 l 1080 0 l 1234 0 l 1389 0 l 1389 154 l 1389 309 l 1234 309 l 1234 154 l 1080 154 l 926 154 l 771 154 l 771 309 l 771 463 l 926 463 l 1080 463 l 1080 617 l 926 617 l 771 617 l 771 771 l 771 926 l 926 926 l 1080 926 l 1234 926 l 1234 771 l 1234 617 l 1389 617 l 1389 771 l 1389 926 l 1389 1080 l 1234 1080 l 1080 1080 l 926 1080 l 771 1080 l 617 1080 l 463 1080 l 463 926 l 617 926 l 617 771 l 617 617 l 463 617 l 309 617 l 309 771 l 154 771 l 154 617 l 154 463 l 154 309 l 154 154 l 0 154 l 0 0 m 309 771 l 463 771 l 463 926 l 309 926 l 309 771 z "},"×":{"ha":617,"x_min":0,"x_max":463,"o":"m 0 309 l 154 309 l 154 463 l 0 463 l 0 309 m 0 617 l 154 617 l 154 771 l 0 771 l 0 617 m 154 463 l 309 463 l 309 617 l 154 617 l 154 463 m 309 309 l 463 309 l 463 463 l 309 463 l 309 309 m 309 617 l 463 617 l 463 771 l 309 771 l 309 617 z "},"Ø":{"ha":1234,"x_min":0,"x_max":1080,"o":"m 0 0 l 154 0 l 154 154 l 0 154 l 0 0 m 154 154 l 309 154 l 309 309 l 463 309 l 463 463 l 309 463 l 309 617 l 309 771 l 154 771 l 154 617 l 154 463 l 154 309 l 154 154 m 309 0 l 463 0 l 617 0 l 771 0 l 771 154 l 617 154 l 463 154 l 309 154 l 309 0 m 309 771 l 463 771 l 463 926 l 309 926 l 309 771 m 463 463 l 617 463 l 617 617 l 463 617 l 463 463 m 463 926 l 617 926 l 771 926 l 771 1080 l 617 1080 l 463 1080 l 463 926 m 617 617 l 771 617 l 771 771 l 617 771 l 617 617 m 771 154 l 926 154 l 926 309 l 771 309 l 771 154 m 771 771 l 926 771 l 926 926 l 771 926 l 771 771 m 926 309 l 1080 309 l 1080 463 l 1080 617 l 1080 771 l 926 771 l 926 617 l 926 463 l 926 309 m 926 926 l 1080 926 l 1080 1080 l 926 1080 l 926 926 z "},"Þ":{"ha":1080,"x_min":0,"x_max":926,"o":"m 0 0 l 154 0 l 309 0 l 463 0 l 463 154 l 309 154 l 309 309 l 463 309 l 463 463 l 309 463 l 309 617 l 463 617 l 463 771 l 309 771 l 309 926 l 463 926 l 463 1080 l 309 1080 l 154 1080 l 0 1080 l 0 926 l 154 926 l 154 771 l 154 617 l 154 463 l 154 309 l 154 154 l 0 154 l 0 0 m 463 154 l 617 154 l 771 154 l 771 309 l 617 309 l 463 309 l 463 154 m 463 771 l 617 771 l 771 771 l 771 926 l 617 926 l 463 926 l 463 771 m 771 309 l 926 309 l 926 463 l 926 617 l 926 771 l 771 771 l 771 617 l 771 463 l 771 309 z "},"ß":{"ha":926,"x_min":0,"x_max":771,"o":"m 0 -155 l 154 -155 l 154 0 l 154 154 l 154 309 l 154 463 l 154 617 l 154 771 l 154 926 l 0 926 l 0 771 l 0 617 l 0 463 l 0 309 l 0 154 l 0 0 l 0 -155 m 154 926 l 309 926 l 463 926 l 463 1080 l 309 1080 l 154 1080 l 154 926 m 309 0 l 463 0 l 617 0 l 617 154 l 463 154 l 309 154 l 309 0 m 309 617 l 463 617 l 463 771 l 309 771 l 309 617 m 463 463 l 617 463 l 617 617 l 463 617 l 463 463 m 463 771 l 617 771 l 617 926 l 463 926 l 463 771 m 617 154 l 771 154 l 771 309 l 771 463 l 617 463 l 617 309 l 617 154 z "},"æ":{"ha":1543,"x_min":0,"x_max":1389,"o":"m 0 154 l 154 154 l 154 309 l 154 463 l 0 463 l 0 309 l 0 154 m 154 0 l 309 0 l 463 0 l 617 0 l 771 0 l 926 0 l 1080 0 l 1234 0 l 1234 154 l 1080 154 l 926 154 l 771 154 l 771 309 l 926 309 l 1080 309 l 1080 463 l 926 463 l 771 463 l 771 617 l 771 771 l 926 771 l 1080 771 l 1080 926 l 926 926 l 771 926 l 617 926 l 463 926 l 309 926 l 154 926 l 154 771 l 309 771 l 463 771 l 617 771 l 617 617 l 463 617 l 309 617 l 154 617 l 154 463 l 309 463 l 463 463 l 617 463 l 617 309 l 617 154 l 463 154 l 309 154 l 154 154 l 154 0 m 1080 463 l 1234 463 l 1234 617 l 1234 771 l 1080 771 l 1080 617 l 1080 463 m 1234 154 l 1389 154 l 1389 309 l 1234 309 l 1234 154 z "},"÷":{"ha":617,"x_min":0,"x_max":463,"o":"m 0 463 l 154 463 l 309 463 l 463 463 l 463 617 l 309 617 l 154 617 l 0 617 l 0 463 m 154 154 l 309 154 l 309 309 l 154 309 l 154 154 m 154 771 l 309 771 l 309 926 l 154 926 l 154 771 z "},"ø":{"ha":1080,"x_min":0,"x_max":926,"o":"m 0 0 l 154 0 l 154 154 l 0 154 l 0 0 m 154 154 l 309 154 l 309 309 l 463 309 l 463 463 l 309 463 l 309 617 l 309 771 l 154 771 l 154 617 l 154 463 l 154 309 l 154 154 m 309 0 l 463 0 l 617 0 l 771 0 l 771 154 l 617 154 l 463 154 l 309 154 l 309 0 m 309 771 l 463 771 l 617 771 l 617 926 l 463 926 l 309 926 l 309 771 m 463 463 l 617 463 l 617 617 l 463 617 l 463 463 m 617 617 l 771 617 l 771 771 l 617 771 l 617 617 m 771 154 l 926 154 l 926 309 l 926 463 l 926 617 l 771 617 l 771 463 l 771 309 l 771 154 m 771 771 l 926 771 l 926 926 l 771 926 l 771 771 z "},"þ":{"ha":1080,"x_min":0,"x_max":926,"o":"m 0 -155 l 154 -155 l 309 -155 l 463 -155 l 463 0 l 309 0 l 309 154 l 309 309 l 463 309 l 463 463 l 309 463 l 309 617 l 463 617 l 463 771 l 309 771 l 309 926 l 309 1080 l 154 1080 l 0 1080 l 0 926 l 154 926 l 154 771 l 154 617 l 154 463 l 154 309 l 154 154 l 154 0 l 0 0 l 0 -155 m 463 154 l 617 154 l 771 154 l 771 309 l 617 309 l 463 309 l 463 154 m 463 771 l 617 771 l 771 771 l 771 926 l 617 926 l 463 926 l 463 771 m 771 309 l 926 309 l 926 463 l 926 617 l 926 771 l 771 771 l 771 617 l 771 463 l 771 309 z "},"Ł":{"ha":1080,"x_min":0,"x_max":926,"o":"m 0 0 l 154 0 l 309 0 l 463 0 l 617 0 l 771 0 l 926 0 l 926 154 l 926 309 l 926 463 l 771 463 l 771 309 l 771 154 l 617 154 l 463 154 l 309 154 l 309 309 l 309 463 l 463 463 l 463 617 l 309 617 l 309 771 l 309 926 l 463 926 l 463 1080 l 309 1080 l 154 1080 l 0 1080 l 0 926 l 154 926 l 154 771 l 154 617 l 154 463 l 0 463 l 0 309 l 154 309 l 154 154 l 0 154 l 0 0 m 463 617 l 617 617 l 617 771 l 463 771 l 463 617 z "},"ł":{"ha":617,"x_min":0,"x_max":463,"o":"m 0 0 l 154 0 l 309 0 l 463 0 l 463 154 l 309 154 l 309 309 l 309 463 l 309 617 l 463 617 l 463 771 l 309 771 l 309 926 l 309 1080 l 154 1080 l 0 1080 l 0 926 l 154 926 l 154 771 l 154 617 l 0 617 l 0 463 l 154 463 l 154 309 l 154 154 l 0 154 l 0 0 z "},"Œ":{"ha":1543,"x_min":0,"x_max":1389,"o":"m 0 154 l 154 154 l 154 309 l 154 463 l 154 617 l 154 771 l 0 771 l 0 617 l 0 463 l 0 309 l 0 154 m 154 0 l 309 0 l 463 0 l 463 154 l 309 154 l 154 154 l 154 0 m 154 771 l 309 771 l 309 926 l 154 926 l 154 771 m 309 926 l 463 926 l 617 926 l 617 771 l 617 617 l 617 463 l 617 309 l 463 309 l 463 154 l 617 154 l 617 0 l 771 0 l 926 0 l 1080 0 l 1234 0 l 1389 0 l 1389 154 l 1389 309 l 1234 309 l 1234 154 l 1080 154 l 926 154 l 771 154 l 771 309 l 771 463 l 926 463 l 1080 463 l 1080 617 l 926 617 l 771 617 l 771 771 l 771 926 l 926 926 l 1080 926 l 1234 926 l 1234 771 l 1234 617 l 1389 617 l 1389 771 l 1389 926 l 1389 1080 l 1234 1080 l 1080 1080 l 926 1080 l 771 1080 l 617 1080 l 463 1080 l 309 1080 l 309 926 z "},"œ":{"ha":1543,"x_min":0,"x_max":1389,"o":"m 0 154 l 154 154 l 154 309 l 154 463 l 154 617 l 154 771 l 0 771 l 0 617 l 0 463 l 0 309 l 0 154 m 154 0 l 309 0 l 463 0 l 463 154 l 309 154 l 154 154 l 154 0 m 154 771 l 309 771 l 463 771 l 617 771 l 617 926 l 463 926 l 309 926 l 154 926 l 154 771 m 463 154 l 617 154 l 771 154 l 771 309 l 926 309 l 1080 309 l 1080 463 l 926 463 l 771 463 l 771 617 l 771 771 l 617 771 l 617 617 l 617 463 l 617 309 l 463 309 l 463 154 m 771 0 l 926 0 l 1080 0 l 1234 0 l 1234 154 l 1080 154 l 926 154 l 771 154 l 771 0 m 771 771 l 926 771 l 1080 771 l 1080 926 l 926 926 l 771 926 l 771 771 m 1080 463 l 1234 463 l 1234 617 l 1234 771 l 1080 771 l 1080 617 l 1080 463 m 1234 154 l 1389 154 l 1389 309 l 1234 309 l 1234 154 z "},"ǀ":{"ha":309,"x_min":0,"x_max":154,"o":"m 0 0 l 154 0 l 154 154 l 154 309 l 154 463 l 154 617 l 154 771 l 154 926 l 154 1080 l 0 1080 l 0 926 l 0 771 l 0 617 l 0 463 l 0 309 l 0 154 l 0 0 z "},"ǁ":{"ha":617,"x_min":0,"x_max":463,"o":"m 0 0 l 154 0 l 154 154 l 154 309 l 154 463 l 154 617 l 154 771 l 154 926 l 154 1080 l 0 1080 l 0 926 l 0 771 l 0 617 l 0 463 l 0 309 l 0 154 l 0 0 m 309 0 l 463 0 l 463 154 l 463 309 l 463 463 l 463 617 l 463 771 l 463 926 l 463 1080 l 309 1080 l 309 926 l 309 771 l 309 617 l 309 463 l 309 309 l 309 154 l 309 0 z "},"ǂ":{"ha":617,"x_min":0,"x_max":463,"o":"m 0 309 l 154 309 l 154 154 l 154 0 l 309 0 l 309 154 l 309 309 l 463 309 l 463 463 l 309 463 l 309 617 l 463 617 l 463 771 l 309 771 l 309 926 l 309 1080 l 154 1080 l 154 926 l 154 771 l 0 771 l 0 617 l 154 617 l 154 463 l 0 463 l 0 309 z "},"ǃ":{"ha":309,"x_min":0,"x_max":154,"o":"m 0 0 l 154 0 l 154 154 l 0 154 l 0 0 m 0 309 l 154 309 l 154 463 l 154 617 l 154 771 l 154 926 l 154 1080 l 0 1080 l 0 926 l 0 771 l 0 617 l 0 463 l 0 309 z "},"ʹ":{"ha":463,"x_min":0,"x_max":309,"o":"m 0 771 l 154 771 l 154 926 l 0 926 l 0 771 m 154 926 l 309 926 l 309 1080 l 154 1080 l 154 926 z "},"ʺ":{"ha":771,"x_min":0,"x_max":617,"o":"m 0 771 l 154 771 l 154 926 l 0 926 l 0 771 m 154 926 l 309 926 l 309 1080 l 154 1080 l 154 926 m 309 771 l 463 771 l 463 926 l 309 926 l 309 771 m 463 926 l 617 926 l 617 1080 l 463 1080 l 463 926 z "},"ʻ":{"ha":309,"x_min":0,"x_max":154,"o":"m 0 771 l 154 771 l 154 926 l 154 1080 l 0 1080 l 0 926 l 0 771 z "},"ʼ":{"ha":309,"x_min":0,"x_max":154,"o":"m 0 771 l 154 771 l 154 926 l 154 1080 l 0 1080 l 0 926 l 0 771 z "},"ʽ":{"ha":309,"x_min":0,"x_max":154,"o":"m 0 771 l 154 771 l 154 926 l 154 1080 l 0 1080 l 0 926 l 0 771 z "},"˝":{"ha":771,"x_min":0,"x_max":617,"o":"m 0 771 l 154 771 l 154 926 l 0 926 l 0 771 m 154 926 l 309 926 l 309 1080 l 154 1080 l 154 926 m 309 771 l 463 771 l 463 926 l 309 926 l 309 771 m 463 926 l 617 926 l 617 1080 l 463 1080 l 463 926 z "},"ˮ":{"ha":617,"x_min":0,"x_max":463,"o":"m 0 771 l 154 771 l 154 926 l 154 1080 l 0 1080 l 0 926 l 0 771 m 309 771 l 463 771 l 463 926 l 463 1080 l 309 1080 l 309 926 l 309 771 z "},"ẞ":{"ha":926,"x_min":0,"x_max":771,"o":"m 0 0 l 154 0 l 154 154 l 154 309 l 154 463 l 154 617 l 154 771 l 154 926 l 0 926 l 0 771 l 0 617 l 0 463 l 0 309 l 0 154 l 0 0 m 154 926 l 309 926 l 463 926 l 463 771 l 617 771 l 617 926 l 617 1080 l 463 1080 l 309 1080 l 154 1080 l 154 926 m 309 0 l 463 0 l 617 0 l 617 154 l 463 154 l 309 154 l 309 0 m 309 617 l 463 617 l 463 771 l 309 771 l 309 617 m 463 463 l 617 463 l 617 617 l 463 617 l 463 463 m 617 154 l 771 154 l 771 309 l 771 463 l 617 463 l 617 309 l 617 154 z "},"‒":{"ha":771,"x_min":0,"x_max":617,"o":"m 0 463 l 154 463 l 309 463 l 463 463 l 617 463 l 617 617 l 463 617 l 309 617 l 154 617 l 0 617 l 0 463 z "},"–":{"ha":771,"x_min":0,"x_max":617,"o":"m 0 463 l 154 463 l 309 463 l 463 463 l 617 463 l 617 617 l 463 617 l 309 617 l 154 617 l 0 617 l 0 463 z "},"—":{"ha":926,"x_min":0,"x_max":771,"o":"m 0 463 l 154 463 l 309 463 l 463 463 l 617 463 l 771 463 l 771 617 l 617 617 l 463 617 l 309 617 l 154 617 l 0 617 l 0 463 z "},"―":{"ha":1234,"x_min":0,"x_max":1080,"o":"m 0 463 l 154 463 l 309 463 l 463 463 l 617 463 l 771 463 l 926 463 l 1080 463 l 1080 617 l 926 617 l 771 617 l 617 617 l 463 617 l 309 617 l 154 617 l 0 617 l 0 463 z "},"‖":{"ha":617,"x_min":0,"x_max":463,"o":"m 0 -155 l 154 -155 l 154 0 l 154 154 l 154 309 l 154 463 l 154 617 l 154 771 l 154 926 l 154 1080 l 0 1080 l 0 926 l 0 771 l 0 617 l 0 463 l 0 309 l 0 154 l 0 0 l 0 -155 m 309 -155 l 463 -155 l 463 0 l 463 154 l 463 309 l 463 463 l 463 617 l 463 771 l 463 926 l 463 1080 l 309 1080 l 309 926 l 309 771 l 309 617 l 309 463 l 309 309 l 309 154 l 309 0 l 309 -155 z "},"‗":{"ha":926,"x_min":0,"x_max":771,"o":"m 0 -155 l 154 -155 l 309 -155 l 463 -155 l 617 -155 l 771 -155 l 771 0 l 617 0 l 463 0 l 309 0 l 154 0 l 0 0 l 0 -155 m 0 154 l 154 154 l 309 154 l 463 154 l 617 154 l 771 154 l 771 309 l 617 309 l 463 309 l 309 309 l 154 309 l 0 309 l 0 154 z "},"‘":{"ha":309,"x_min":0,"x_max":154,"o":"m 0 771 l 154 771 l 154 926 l 154 1080 l 0 1080 l 0 926 l 0 771 z "},"’":{"ha":309,"x_min":0,"x_max":154,"o":"m 0 771 l 154 771 l 154 926 l 154 1080 l 0 1080 l 0 926 l 0 771 z "},"‚":{"ha":309,"x_min":0,"x_max":154,"o":"m 0 -155 l 154 -155 l 154 0 l 154 154 l 0 154 l 0 0 l 0 -155 z "},"‛":{"ha":309,"x_min":0,"x_max":154,"o":"m 0 771 l 154 771 l 154 926 l 154 1080 l 0 1080 l 0 926 l 0 771 z "},"“":{"ha":617,"x_min":0,"x_max":463,"o":"m 0 771 l 154 771 l 154 926 l 154 1080 l 0 1080 l 0 926 l 0 771 m 309 771 l 463 771 l 463 926 l 463 1080 l 309 1080 l 309 926 l 309 771 z "},"”":{"ha":617,"x_min":0,"x_max":463,"o":"m 0 771 l 154 771 l 154 926 l 154 1080 l 0 1080 l 0 926 l 0 771 m 309 771 l 463 771 l 463 926 l 463 1080 l 309 1080 l 309 926 l 309 771 z "},"„":{"ha":617,"x_min":0,"x_max":463,"o":"m 0 -155 l 154 -155 l 154 0 l 154 154 l 0 154 l 0 0 l 0 -155 m 309 -155 l 463 -155 l 463 0 l 463 154 l 309 154 l 309 0 l 309 -155 z "},"‟":{"ha":617,"x_min":0,"x_max":463,"o":"m 0 771 l 154 771 l 154 926 l 154 1080 l 0 1080 l 0 926 l 0 771 m 309 771 l 463 771 l 463 926 l 463 1080 l 309 1080 l 309 926 l 309 771 z "},"†":{"ha":926,"x_min":0,"x_max":771,"o":"m 0 617 l 154 617 l 309 617 l 309 463 l 309 309 l 309 154 l 309 0 l 309 -155 l 463 -155 l 463 0 l 463 154 l 463 309 l 463 463 l 463 617 l 617 617 l 771 617 l 771 771 l 617 771 l 463 771 l 463 926 l 463 1080 l 309 1080 l 309 926 l 309 771 l 154 771 l 0 771 l 0 617 z "},"‡":{"ha":926,"x_min":0,"x_max":771,"o":"m 0 154 l 154 154 l 309 154 l 309 0 l 309 -155 l 463 -155 l 463 0 l 463 154 l 617 154 l 771 154 l 771 309 l 617 309 l 463 309 l 463 463 l 463 617 l 617 617 l 771 617 l 771 771 l 617 771 l 463 771 l 463 926 l 463 1080 l 309 1080 l 309 926 l 309 771 l 154 771 l 0 771 l 0 617 l 154 617 l 309 617 l 309 463 l 309 309 l 154 309 l 0 309 l 0 154 z "},"•":{"ha":771,"x_min":0,"x_max":617,"o":"m 0 463 l 154 463 l 154 309 l 309 309 l 463 309 l 463 463 l 617 463 l 617 617 l 463 617 l 463 771 l 309 771 l 154 771 l 154 617 l 0 617 l 0 463 z "},"…":{"ha":926,"x_min":0,"x_max":771,"o":"m 0 0 l 154 0 l 154 154 l 0 154 l 0 0 m 309 0 l 463 0 l 463 154 l 309 154 l 309 0 m 617 0 l 771 0 l 771 154 l 617 154 l 617 0 z "},"‰":{"ha":1389,"x_min":0,"x_max":1234,"o":"m 0 0 l 154 0 l 154 154 l 0 154 l 0 0 m 154 154 l 309 154 l 309 309 l 154 309 l 154 154 m 154 771 l 309 771 l 463 771 l 463 926 l 463 1080 l 309 1080 l 154 1080 l 154 926 l 154 771 m 309 309 l 463 309 l 463 463 l 309 463 l 309 309 m 463 0 l 617 0 l 771 0 l 771 154 l 771 309 l 617 309 l 463 309 l 463 154 l 463 0 m 463 463 l 617 463 l 617 617 l 463 617 l 463 463 m 617 617 l 771 617 l 771 771 l 617 771 l 617 617 m 771 771 l 926 771 l 926 926 l 771 926 l 771 771 m 926 0 l 1080 0 l 1234 0 l 1234 154 l 1234 309 l 1080 309 l 926 309 l 926 154 l 926 0 m 926 926 l 1080 926 l 1080 1080 l 926 1080 l 926 926 z "},"′":{"ha":463,"x_min":0,"x_max":309,"o":"m 0 771 l 154 771 l 154 926 l 0 926 l 0 771 m 154 926 l 309 926 l 309 1080 l 154 1080 l 154 926 z "},"″":{"ha":771,"x_min":0,"x_max":617,"o":"m 0 771 l 154 771 l 154 926 l 0 926 l 0 771 m 154 926 l 309 926 l 309 1080 l 154 1080 l 154 926 m 309 771 l 463 771 l 463 926 l 309 926 l 309 771 m 463 926 l 617 926 l 617 1080 l 463 1080 l 463 926 z "},"‹":{"ha":617,"x_min":0,"x_max":463,"o":"m 0 309 l 154 309 l 154 463 l 0 463 l 0 309 m 154 154 l 309 154 l 309 309 l 154 309 l 154 154 m 154 463 l 309 463 l 309 617 l 154 617 l 154 463 m 309 0 l 463 0 l 463 154 l 309 154 l 309 0 m 309 617 l 463 617 l 463 771 l 309 771 l 309 617 z "},"›":{"ha":617,"x_min":0,"x_max":463,"o":"m 0 0 l 154 0 l 154 154 l 0 154 l 0 0 m 0 617 l 154 617 l 154 771 l 0 771 l 0 617 m 154 154 l 309 154 l 309 309 l 154 309 l 154 154 m 154 463 l 309 463 l 309 617 l 154 617 l 154 463 m 309 309 l 463 309 l 463 463 l 309 463 l 309 309 z "},"‼":{"ha":617,"x_min":0,"x_max":463,"o":"m 0 0 l 154 0 l 154 154 l 0 154 l 0 0 m 0 309 l 154 309 l 154 463 l 154 617 l 154 771 l 154 926 l 154 1080 l 0 1080 l 0 926 l 0 771 l 0 617 l 0 463 l 0 309 m 309 0 l 463 0 l 463 154 l 309 154 l 309 0 m 309 309 l 463 309 l 463 463 l 463 617 l 463 771 l 463 926 l 463 1080 l 309 1080 l 309 926 l 309 771 l 309 617 l 309 463 l 309 309 z "},"‾":{"ha":926,"x_min":0,"x_max":771,"o":"m 0 926 l 154 926 l 309 926 l 463 926 l 617 926 l 771 926 l 771 1080 l 617 1080 l 463 1080 l 309 1080 l 154 1080 l 0 1080 l 0 926 z "},"₪":{"ha":1234,"x_min":0,"x_max":1080,"o":"m 0 0 l 154 0 l 154 154 l 154 309 l 154 463 l 154 617 l 154 771 l 309 771 l 463 771 l 617 771 l 617 926 l 463 926 l 309 926 l 154 926 l 0 926 l 0 771 l 0 617 l 0 463 l 0 309 l 0 154 l 0 0 m 309 154 l 463 154 l 463 309 l 463 463 l 463 617 l 309 617 l 309 463 l 309 309 l 309 154 m 463 0 l 617 0 l 771 0 l 926 0 l 1080 0 l 1080 154 l 1080 309 l 1080 463 l 1080 617 l 1080 771 l 1080 926 l 926 926 l 926 771 l 926 617 l 926 463 l 926 309 l 926 154 l 771 154 l 617 154 l 463 154 l 463 0 m 617 309 l 771 309 l 771 463 l 771 617 l 771 771 l 617 771 l 617 617 l 617 463 l 617 309 z "},"₫":{"ha":926,"x_min":0,"x_max":771,"o":"m 0 309 l 154 309 l 154 463 l 0 463 l 0 309 m 154 -155 l 309 -155 l 463 -155 l 617 -155 l 617 0 l 463 0 l 309 0 l 154 0 l 154 -155 m 154 154 l 309 154 l 463 154 l 617 154 l 771 154 l 771 309 l 617 309 l 617 463 l 617 617 l 617 771 l 771 771 l 771 926 l 617 926 l 617 1080 l 463 1080 l 463 926 l 309 926 l 309 771 l 463 771 l 463 617 l 309 617 l 154 617 l 154 463 l 309 463 l 463 463 l 463 309 l 309 309 l 154 309 l 154 154 z "},"€":{"ha":1080,"x_min":0,"x_max":926,"o":"m 0 309 l 154 309 l 154 154 l 309 154 l 309 309 l 463 309 l 617 309 l 617 463 l 463 463 l 309 463 l 309 617 l 463 617 l 617 617 l 617 771 l 463 771 l 309 771 l 309 926 l 154 926 l 154 771 l 0 771 l 0 617 l 154 617 l 154 463 l 0 463 l 0 309 m 309 0 l 463 0 l 617 0 l 771 0 l 771 154 l 617 154 l 463 154 l 309 154 l 309 0 m 309 926 l 463 926 l 617 926 l 771 926 l 771 1080 l 617 1080 l 463 1080 l 309 1080 l 309 926 m 771 154 l 926 154 l 926 309 l 771 309 l 771 154 m 771 771 l 926 771 l 926 926 l 771 926 l 771 771 z "},"₸":{"ha":926,"x_min":0,"x_max":771,"o":"m 0 617 l 154 617 l 309 617 l 309 463 l 309 309 l 309 154 l 309 0 l 463 0 l 463 154 l 463 309 l 463 463 l 463 617 l 617 617 l 771 617 l 771 771 l 617 771 l 463 771 l 309 771 l 154 771 l 0 771 l 0 617 m 0 926 l 154 926 l 309 926 l 463 926 l 617 926 l 771 926 l 771 1080 l 617 1080 l 463 1080 l 309 1080 l 154 1080 l 0 1080 l 0 926 z "},"₺":{"ha":926,"x_min":0,"x_max":771,"o":"m 0 309 l 154 309 l 154 154 l 154 0 l 309 0 l 463 0 l 463 154 l 309 154 l 309 309 l 309 463 l 463 463 l 463 617 l 309 617 l 309 771 l 463 771 l 463 926 l 309 926 l 309 1080 l 154 1080 l 154 926 l 154 771 l 0 771 l 0 617 l 154 617 l 154 463 l 0 463 l 0 309 m 463 154 l 617 154 l 617 309 l 463 309 l 463 154 m 617 309 l 771 309 l 771 463 l 771 617 l 617 617 l 617 463 l 617 309 z "},"₽":{"ha":1080,"x_min":0,"x_max":926,"o":"m 0 154 l 154 154 l 154 0 l 309 0 l 309 154 l 463 154 l 617 154 l 771 154 l 771 309 l 617 309 l 463 309 l 309 309 l 309 463 l 463 463 l 617 463 l 771 463 l 771 617 l 617 617 l 463 617 l 309 617 l 309 771 l 309 926 l 463 926 l 617 926 l 617 1080 l 463 1080 l 309 1080 l 154 1080 l 154 926 l 154 771 l 154 617 l 0 617 l 0 463 l 154 463 l 154 309 l 0 309 l 0 154 m 617 771 l 771 771 l 771 926 l 617 926 l 617 771 m 771 617 l 926 617 l 926 771 l 771 771 l 771 617 z "},"₿":{"ha":926,"x_min":0,"x_max":771,"o":"m 0 0 l 154 0 l 154 -155 l 309 -155 l 309 0 l 463 0 l 463 -155 l 617 -155 l 617 0 l 771 0 l 771 154 l 771 309 l 771 463 l 617 463 l 617 309 l 617 154 l 463 154 l 309 154 l 309 309 l 309 463 l 463 463 l 617 463 l 617 617 l 463 617 l 309 617 l 309 771 l 463 771 l 617 771 l 617 617 l 771 617 l 771 771 l 771 926 l 617 926 l 617 1080 l 463 1080 l 463 926 l 309 926 l 309 1080 l 154 1080 l 154 926 l 0 926 l 0 771 l 154 771 l 154 617 l 154 463 l 154 309 l 154 154 l 0 154 l 0 0 z "},"℗":{"ha":1234,"x_min":0,"x_max":1080,"o":"m 0 309 l 154 309 l 154 463 l 154 617 l 154 771 l 0 771 l 0 617 l 0 463 l 0 309 m 154 154 l 309 154 l 309 309 l 154 309 l 154 154 m 154 771 l 309 771 l 309 926 l 154 926 l 154 771 m 309 0 l 463 0 l 617 0 l 771 0 l 771 154 l 617 154 l 463 154 l 309 154 l 309 0 m 309 309 l 463 309 l 463 463 l 617 463 l 771 463 l 771 617 l 771 771 l 617 771 l 463 771 l 309 771 l 309 617 l 309 463 l 309 309 m 309 926 l 463 926 l 617 926 l 771 926 l 771 1080 l 617 1080 l 463 1080 l 309 1080 l 309 926 m 771 154 l 926 154 l 926 309 l 771 309 l 771 154 m 771 771 l 926 771 l 926 926 l 771 926 l 771 771 m 926 309 l 1080 309 l 1080 463 l 1080 617 l 1080 771 l 926 771 l 926 617 l 926 463 l 926 309 z "},"™":{"ha":1234,"x_min":0,"x_max":1080,"o":"m 0 926 l 154 926 l 154 771 l 154 617 l 309 617 l 309 771 l 309 926 l 463 926 l 463 1080 l 309 1080 l 154 1080 l 0 1080 l 0 926 m 617 617 l 771 617 l 771 771 l 926 771 l 926 617 l 1080 617 l 1080 771 l 1080 926 l 1080 1080 l 926 1080 l 771 1080 l 617 1080 l 617 926 l 617 771 l 617 617 z "},"℮":{"ha":1080,"x_min":0,"x_max":926,"o":"m 0 154 l 154 154 l 154 0 l 309 0 l 463 0 l 617 0 l 771 0 l 771 154 l 617 154 l 463 154 l 309 154 l 309 309 l 309 463 l 463 463 l 617 463 l 771 463 l 926 463 l 926 617 l 926 771 l 771 771 l 771 926 l 617 926 l 463 926 l 309 926 l 154 926 l 154 771 l 0 771 l 0 617 l 0 463 l 0 309 l 0 154 m 309 617 l 309 771 l 463 771 l 617 771 l 617 617 l 463 617 l 309 617 m 771 154 l 926 154 l 926 309 l 771 309 l 771 154 z "},"←":{"ha":1234,"x_min":0,"x_max":1080,"o":"m 0 463 l 154 463 l 154 309 l 309 309 l 309 463 l 463 463 l 617 463 l 771 463 l 926 463 l 1080 463 l 1080 617 l 926 617 l 771 617 l 617 617 l 463 617 l 309 617 l 309 771 l 154 771 l 154 617 l 0 617 l 0 463 m 309 154 l 463 154 l 463 309 l 309 309 l 309 154 m 309 771 l 463 771 l 463 926 l 309 926 l 309 771 z "},"↑":{"ha":926,"x_min":0,"x_max":771,"o":"m 0 617 l 154 617 l 154 771 l 0 771 l 0 617 m 154 771 l 309 771 l 309 617 l 309 463 l 309 309 l 309 154 l 309 0 l 463 0 l 463 154 l 463 309 l 463 463 l 463 617 l 463 771 l 617 771 l 617 926 l 463 926 l 463 1080 l 309 1080 l 309 926 l 154 926 l 154 771 m 617 617 l 771 617 l 771 771 l 617 771 l 617 617 z "},"→":{"ha":1234,"x_min":0,"x_max":1080,"o":"m 0 463 l 154 463 l 309 463 l 463 463 l 617 463 l 771 463 l 771 309 l 926 309 l 926 463 l 1080 463 l 1080 617 l 926 617 l 926 771 l 771 771 l 771 617 l 617 617 l 463 617 l 309 617 l 154 617 l 0 617 l 0 463 m 617 154 l 771 154 l 771 309 l 617 309 l 617 154 m 617 771 l 771 771 l 771 926 l 617 926 l 617 771 z "},"↓":{"ha":926,"x_min":0,"x_max":771,"o":"m 0 309 l 154 309 l 154 463 l 0 463 l 0 309 m 154 154 l 309 154 l 309 0 l 463 0 l 463 154 l 617 154 l 617 309 l 463 309 l 463 463 l 463 617 l 463 771 l 463 926 l 463 1080 l 309 1080 l 309 926 l 309 771 l 309 617 l 309 463 l 309 309 l 154 309 l 154 154 m 617 309 l 771 309 l 771 463 l 617 463 l 617 309 z "},"↔":{"ha":1234,"x_min":0,"x_max":1080,"o":"m 0 463 l 154 463 l 154 309 l 309 309 l 309 463 l 463 463 l 617 463 l 771 463 l 771 309 l 926 309 l 926 463 l 1080 463 l 1080 617 l 926 617 l 926 771 l 771 771 l 771 617 l 617 617 l 463 617 l 309 617 l 309 771 l 154 771 l 154 617 l 0 617 l 0 463 m 309 154 l 463 154 l 463 309 l 309 309 l 309 154 m 309 771 l 463 771 l 463 926 l 309 926 l 309 771 m 617 154 l 771 154 l 771 309 l 617 309 l 617 154 m 617 771 l 771 771 l 771 926 l 617 926 l 617 771 z "},"↕":{"ha":926,"x_min":0,"x_max":771,"o":"m 0 309 l 154 309 l 154 463 l 0 463 l 0 309 m 0 617 l 154 617 l 154 771 l 0 771 l 0 617 m 154 154 l 309 154 l 309 0 l 463 0 l 463 154 l 617 154 l 617 309 l 463 309 l 463 463 l 463 617 l 463 771 l 617 771 l 617 926 l 463 926 l 463 1080 l 309 1080 l 309 926 l 154 926 l 154 771 l 309 771 l 309 617 l 309 463 l 309 309 l 154 309 l 154 154 m 617 309 l 771 309 l 771 463 l 617 463 l 617 309 m 617 617 l 771 617 l 771 771 l 617 771 l 617 617 z "},"∑":{"ha":771,"x_min":0,"x_max":617,"o":"m 0 0 l 154 0 l 309 0 l 463 0 l 617 0 l 617 154 l 463 154 l 309 154 l 154 154 l 154 309 l 0 309 l 0 154 l 0 0 m 0 771 l 154 771 l 154 926 l 309 926 l 463 926 l 617 926 l 617 1080 l 463 1080 l 309 1080 l 154 1080 l 0 1080 l 0 926 l 0 771 m 154 309 l 309 309 l 309 463 l 154 463 l 154 309 m 154 617 l 309 617 l 309 771 l 154 771 l 154 617 m 309 463 l 463 463 l 463 617 l 309 617 l 309 463 z "},"−":{"ha":617,"x_min":0,"x_max":463,"o":"m 0 463 l 154 463 l 309 463 l 463 463 l 463 617 l 309 617 l 154 617 l 0 617 l 0 463 z "},"√":{"ha":926,"x_min":0,"x_max":771,"o":"m 0 463 l 154 463 l 154 309 l 309 309 l 309 463 l 309 617 l 154 617 l 0 617 l 0 463 m 309 0 l 463 0 l 463 154 l 463 309 l 309 309 l 309 154 l 309 0 m 463 309 l 617 309 l 617 463 l 617 617 l 617 771 l 463 771 l 463 617 l 463 463 l 463 309 m 617 771 l 771 771 l 771 926 l 771 1080 l 617 1080 l 617 926 l 617 771 z "},"∞":{"ha":1234,"x_min":0,"x_max":1080,"o":"m 0 309 l 154 309 l 154 463 l 154 617 l 154 771 l 0 771 l 0 617 l 0 463 l 0 309 m 154 154 l 309 154 l 309 309 l 154 309 l 154 154 m 154 771 l 309 771 l 309 926 l 154 926 l 154 771 m 309 309 l 463 309 l 463 463 l 309 463 l 309 309 m 309 617 l 463 617 l 463 771 l 309 771 l 309 617 m 463 463 l 617 463 l 617 617 l 463 617 l 463 463 m 617 309 l 771 309 l 771 463 l 617 463 l 617 309 m 617 617 l 771 617 l 771 771 l 617 771 l 617 617 m 771 154 l 926 154 l 926 309 l 771 309 l 771 154 m 771 771 l 926 771 l 926 926 l 771 926 l 771 771 m 926 309 l 1080 309 l 1080 463 l 1080 617 l 1080 771 l 926 771 l 926 617 l 926 463 l 926 309 z "},"∟":{"ha":926,"x_min":0,"x_max":771,"o":"m 0 0 l 154 0 l 309 0 l 463 0 l 617 0 l 771 0 l 771 154 l 617 154 l 463 154 l 309 154 l 154 154 l 154 309 l 154 463 l 154 617 l 154 771 l 0 771 l 0 617 l 0 463 l 0 309 l 0 154 l 0 0 z "},"≈":{"ha":926,"x_min":0,"x_max":771,"o":"m 0 154 l 154 154 l 154 309 l 0 309 l 0 154 m 0 617 l 154 617 l 154 771 l 0 771 l 0 617 m 154 309 l 309 309 l 309 463 l 154 463 l 154 309 m 154 771 l 309 771 l 309 926 l 154 926 l 154 771 m 309 154 l 463 154 l 463 309 l 309 309 l 309 154 m 309 617 l 463 617 l 463 771 l 309 771 l 309 617 m 463 0 l 617 0 l 617 154 l 463 154 l 463 0 m 463 463 l 617 463 l 617 617 l 463 617 l 463 463 m 617 154 l 771 154 l 771 309 l 617 309 l 617 154 m 617 617 l 771 617 l 771 771 l 617 771 l 617 617 z "},"≠":{"ha":926,"x_min":0,"x_max":771,"o":"m 0 309 l 154 309 l 154 154 l 309 154 l 309 309 l 463 309 l 617 309 l 771 309 l 771 463 l 617 463 l 463 463 l 463 617 l 617 617 l 771 617 l 771 771 l 617 771 l 617 926 l 463 926 l 463 771 l 309 771 l 154 771 l 0 771 l 0 617 l 154 617 l 309 617 l 309 463 l 154 463 l 0 463 l 0 309 z "},"≡":{"ha":926,"x_min":0,"x_max":771,"o":"m 0 154 l 154 154 l 309 154 l 463 154 l 617 154 l 771 154 l 771 309 l 617 309 l 463 309 l 309 309 l 154 309 l 0 309 l 0 154 m 0 463 l 154 463 l 309 463 l 463 463 l 617 463 l 771 463 l 771 617 l 617 617 l 463 617 l 309 617 l 154 617 l 0 617 l 0 463 m 0 771 l 154 771 l 309 771 l 463 771 l 617 771 l 771 771 l 771 926 l 617 926 l 463 926 l 309 926 l 154 926 l 0 926 l 0 771 z "},"■":{"ha":1234,"x_min":0,"x_max":1080,"o":"m 0 0 l 154 0 l 309 0 l 463 0 l 617 0 l 771 0 l 926 0 l 1080 0 l 1080 154 l 1080 309 l 1080 463 l 1080 617 l 1080 771 l 1080 926 l 1080 1080 l 926 1080 l 771 1080 l 617 1080 l 463 1080 l 309 1080 l 154 1080 l 0 1080 l 0 926 l 0 771 l 0 617 l 0 463 l 0 309 l 0 154 l 0 0 z "},"□":{"ha":1234,"x_min":0,"x_max":1080,"o":"m 0 0 l 154 0 l 309 0 l 463 0 l 617 0 l 771 0 l 926 0 l 1080 0 l 1080 154 l 1080 309 l 1080 463 l 1080 617 l 1080 771 l 1080 926 l 1080 1080 l 926 1080 l 771 1080 l 617 1080 l 463 1080 l 309 1080 l 154 1080 l 0 1080 l 0 926 l 0 771 l 0 617 l 0 463 l 0 309 l 0 154 l 0 0 m 154 154 l 154 309 l 154 463 l 154 617 l 154 771 l 154 926 l 309 926 l 463 926 l 617 926 l 771 926 l 926 926 l 926 771 l 926 617 l 926 463 l 926 309 l 926 154 l 771 154 l 617 154 l 463 154 l 309 154 l 154 154 z "},"▲":{"ha":1234,"x_min":0,"x_max":1080,"o":"m 0 0 l 154 0 l 309 0 l 463 0 l 617 0 l 771 0 l 926 0 l 1080 0 l 1080 154 l 1080 309 l 926 309 l 926 463 l 926 617 l 771 617 l 771 771 l 771 926 l 617 926 l 617 1080 l 463 1080 l 463 926 l 309 926 l 309 771 l 309 617 l 154 617 l 154 463 l 154 309 l 0 309 l 0 154 l 0 0 z "},"▶":{"ha":1234,"x_min":0,"x_max":1080,"o":"m 0 0 l 154 0 l 309 0 l 309 154 l 463 154 l 617 154 l 617 309 l 771 309 l 926 309 l 926 463 l 1080 463 l 1080 617 l 926 617 l 926 771 l 771 771 l 617 771 l 617 926 l 463 926 l 309 926 l 309 1080 l 154 1080 l 0 1080 l 0 926 l 0 771 l 0 617 l 0 463 l 0 309 l 0 154 l 0 0 z "},"▼":{"ha":1234,"x_min":0,"x_max":1080,"o":"m 0 771 l 154 771 l 154 617 l 154 463 l 309 463 l 309 309 l 309 154 l 463 154 l 463 0 l 617 0 l 617 154 l 771 154 l 771 309 l 771 463 l 926 463 l 926 617 l 926 771 l 1080 771 l 1080 926 l 1080 1080 l 926 1080 l 771 1080 l 617 1080 l 463 1080 l 309 1080 l 154 1080 l 0 1080 l 0 926 l 0 771 z "},"◀":{"ha":1234,"x_min":0,"x_max":1080,"o":"m 0 463 l 154 463 l 154 309 l 309 309 l 463 309 l 463 154 l 617 154 l 771 154 l 771 0 l 926 0 l 1080 0 l 1080 154 l 1080 309 l 1080 463 l 1080 617 l 1080 771 l 1080 926 l 1080 1080 l 926 1080 l 771 1080 l 771 926 l 617 926 l 463 926 l 463 771 l 309 771 l 154 771 l 154 617 l 0 617 l 0 463 z "},"○":{"ha":1234,"x_min":0,"x_max":1080,"o":"m 0 309 l 154 309 l 154 463 l 154 617 l 154 771 l 0 771 l 0 617 l 0 463 l 0 309 m 154 154 l 309 154 l 309 309 l 154 309 l 154 154 m 154 771 l 309 771 l 309 926 l 154 926 l 154 771 m 309 0 l 463 0 l 617 0 l 771 0 l 771 154 l 617 154 l 463 154 l 309 154 l 309 0 m 309 926 l 463 926 l 617 926 l 771 926 l 771 1080 l 617 1080 l 463 1080 l 309 1080 l 309 926 m 771 154 l 926 154 l 926 309 l 771 309 l 771 154 m 771 771 l 926 771 l 926 926 l 771 926 l 771 771 m 926 309 l 1080 309 l 1080 463 l 1080 617 l 1080 771 l 926 771 l 926 617 l 926 463 l 926 309 z "},"●":{"ha":1234,"x_min":0,"x_max":1080,"o":"m 0 309 l 154 309 l 154 154 l 309 154 l 309 0 l 463 0 l 617 0 l 771 0 l 771 154 l 926 154 l 926 309 l 1080 309 l 1080 463 l 1080 617 l 1080 771 l 926 771 l 926 926 l 771 926 l 771 1080 l 617 1080 l 463 1080 l 309 1080 l 309 926 l 154 926 l 154 771 l 0 771 l 0 617 l 0 463 l 0 309 z "},"☕":{"ha":1080,"x_min":0,"x_max":926,"o":"m 0 0 l 154 0 l 309 0 l 463 0 l 617 0 l 617 154 l 771 154 l 771 309 l 617 309 l 617 463 l 771 463 l 771 309 l 926 309 l 926 463 l 926 617 l 771 617 l 617 617 l 463 617 l 309 617 l 154 617 l 0 617 l 0 463 l 0 309 l 0 154 l 0 0 m 154 771 l 309 771 l 309 926 l 154 926 l 154 771 m 309 926 l 463 926 l 463 1080 l 309 1080 l 309 926 m 463 771 l 617 771 l 617 926 l 463 926 l 463 771 m 617 926 l 771 926 l 771 1080 l 617 1080 l 617 926 z "},"☡":{"ha":1234,"x_min":0,"x_max":1080,"o":"m 0 0 l 154 0 l 309 0 l 463 0 l 463 154 l 309 154 l 309 309 l 309 463 l 309 617 l 309 771 l 154 771 l 154 617 l 154 463 l 154 309 l 154 154 l 0 154 l 0 0 m 309 771 l 463 771 l 463 926 l 309 926 l 309 771 m 463 926 l 617 926 l 617 771 l 617 617 l 617 463 l 617 309 l 617 154 l 617 0 l 771 0 l 926 0 l 1080 0 l 1080 154 l 1080 309 l 926 309 l 926 154 l 771 154 l 771 309 l 771 463 l 771 617 l 771 771 l 771 926 l 771 1080 l 617 1080 l 463 1080 l 463 926 z "},"♀":{"ha":1234,"x_min":0,"x_max":1080,"o":"m 0 154 l 154 154 l 309 154 l 463 154 l 463 0 l 617 0 l 617 154 l 771 154 l 926 154 l 1080 154 l 1080 309 l 926 309 l 771 309 l 617 309 l 617 463 l 771 463 l 771 617 l 617 617 l 463 617 l 309 617 l 309 463 l 463 463 l 463 309 l 309 309 l 154 309 l 0 309 l 0 154 m 154 617 l 309 617 l 309 771 l 309 926 l 154 926 l 154 771 l 154 617 m 309 926 l 463 926 l 617 926 l 771 926 l 771 1080 l 617 1080 l 463 1080 l 309 1080 l 309 926 m 771 617 l 926 617 l 926 771 l 926 926 l 771 926 l 771 771 l 771 617 z "},"♂":{"ha":1234,"x_min":0,"x_max":1080,"o":"m 0 154 l 154 154 l 154 309 l 154 463 l 0 463 l 0 309 l 0 154 m 154 0 l 309 0 l 463 0 l 463 154 l 309 154 l 154 154 l 154 0 m 154 463 l 309 463 l 463 463 l 463 309 l 463 154 l 617 154 l 617 309 l 617 463 l 617 617 l 463 617 l 309 617 l 154 617 l 154 463 m 463 926 l 617 926 l 771 926 l 771 771 l 926 771 l 926 617 l 926 463 l 1080 463 l 1080 617 l 1080 771 l 1080 926 l 1080 1080 l 926 1080 l 771 1080 l 617 1080 l 463 1080 l 463 926 m 617 617 l 771 617 l 771 771 l 617 771 l 617 617 z "},"Ꞌ":{"ha":309,"x_min":0,"x_max":154,"o":"m 0 309 l 154 309 l 154 463 l 154 617 l 154 771 l 154 926 l 154 1080 l 0 1080 l 0 926 l 0 771 l 0 617 l 0 463 l 0 309 z "},"ꞌ":{"ha":309,"x_min":0,"x_max":154,"o":"m 0 463 l 154 463 l 154 617 l 154 771 l 154 926 l 154 1080 l 0 1080 l 0 926 l 0 771 l 0 617 l 0 463 z "},"�":{"ha":1234,"x_min":0,"x_max":1080,"o":"m 0 309 l 154 309 l 154 154 l 309 154 l 309 0 l 463 0 l 463 -155 l 617 -155 l 617 0 l 771 0 l 771 154 l 926 154 l 926 309 l 1080 309 l 1080 463 l 1080 617 l 926 617 l 926 771 l 771 771 l 771 926 l 617 926 l 617 1080 l 463 1080 l 463 926 l 309 926 l 309 771 l 463 771 l 617 771 l 617 617 l 617 463 l 463 463 l 463 617 l 309 617 l 309 771 l 154 771 l 154 617 l 0 617 l 0 463 l 0 309 m 463 154 l 463 309 l 617 309 l 617 154 l 463 154 z "}}}
